<svg width="1486" height="699" fill="none" xmlns="http://www.w3.org/2000/svg"><path d="M1 275.227c21.512 122.547 140.418 359.339 350.066 405.196 262.061 57.32 309.71-237.953 176.012-326.134-104.14-68.685-235.66-39.037-291.397 83.016-41.069 89.934-6.817 303.783 357.889 253.001 315.843-43.979 358.81-185.304 330.51-266.343-28.3-81.039-154.498-122.654-220.991-11.859-66.494 110.794 60.626 292.204 391.621 203.586C1354.82 546.052 1452.39 318.417 1455 213" stroke="#fff" stroke-width="2" stroke-linecap="round" stroke-linejoin="round" stroke-dasharray="8 8"/><circle cx="799" cy="212" r="212" fill="#fff"/><path d="m1462.11 207.596-12.66-2.845c-2.59-.594-4.22-3.168-3.62-5.763l2.83-12.663c.6-2.595 3.9-4.782 6.56-4.189l11.92 3.407a4.81 4.81 0 0 1 3.63 5.762l-2.22 13.028c-.65 2.595-3.84 3.856-6.44 3.263z" fill="#602B7A" stroke="#602B7A" stroke-width="1.233" stroke-miterlimit="10" stroke-linecap="round" stroke-linejoin="round"/><path d="m1463.58 206.843-12.65-2.846a4.811 4.811 0 0 1-3.63-5.762l2.84-12.664a4.8 4.8 0 0 1 5.75-3.627l12.66 2.845a4.812 4.812 0 0 1 3.63 5.763l-2.84 12.663c-.59 2.533-3.16 4.159-5.76 3.628z" fill="#fff" stroke="#602B7A" stroke-width="1.233" stroke-miterlimit="10" stroke-linecap="round" stroke-linejoin="round"/><path d="M1444.05 180.814c-.12.31.01.678.32.861 1.17.667 4.09 2.429 6.58 5.552 2.56 3.183 4.08 8.041 4.79 10.995.38 1.414 1.56 2.514 3.11 2.623a3.568 3.568 0 0 0 2.76-1.073c1.52-1.555 4.7-4.482 9.79-7.364 5.58-3.133 11.61-3.804 13.46-3.944a.718.718 0 0 0 .67-.561v-.123c.06-.432-.25-.799-.68-.796-2.16-.104-8.26-.11-14.28 2.04-4.67 1.707-8.65 4.271-10.12 5.332-.31.25-.8.131-.99-.237-.94-1.595-3.57-5.826-6.12-8.27-3.29-3.054-6.82-4.81-8.31-5.414-.43-.181-.86.008-.98.379z" fill="#602B7A"/></svg>