<svg id="Слой_1" data-name="Слой 1" xmlns="http://www.w3.org/2000/svg" xmlns:xlink="http://www.w3.org/1999/xlink" viewBox="0 0 850 1073.58405"><defs><style>.cls-1{fill:none;}.cls-2{fill:#3a0ca3;}.cls-3{clip-path:url(#clip-path);}.cls-4{opacity:0.5;}.cls-5{fill:#3f37c9;}.cls-6{fill:#4cc9f0;}.cls-7{fill:#4361ee;}.cls-8{fill:#80ffdb;}.cls-9{fill:#fff;}</style><clipPath id="clip-path" transform="translate(-325 -213.20797)"><path class="cls-1" d="M1175,638.231v425.023H325V638.231c0-234.72328,190.3-425.023,425.02325-425.023a424.97151,424.97151,0,0,1,424.1918,399.20959C1174.72294,620.96039,1175,629.54944,1175,638.231Z"/></clipPath></defs><path class="cls-2" d="M1175,638.231v425.023H325V638.231c0-234.72328,190.3-425.023,425.02325-425.023a424.97151,424.97151,0,0,1,424.1918,399.20959C1174.72294,620.96039,1175,629.54944,1175,638.231Z" transform="translate(-325 -213.20797)"/><g class="cls-3"><g class="cls-4"><path class="cls-5" d="M331.83652,238.78179l19.86018-15.42726h25.40246v64.10816H361.76659V237.11776h-4.71251l-17.089,13.39345Z" transform="translate(-325 -213.20797)"/><path class="cls-5" d="M438.52413,238.78179l19.86018-15.42726h25.40245v64.10816H468.4542V237.11776h-4.71251l-17.089,13.39345Z" transform="translate(-325 -213.20797)"/><path class="cls-5" d="M595.374,287.46269H567.19818c-17.18149,0-23.64823-6.372-23.64823-21.894V245.43342c0-17.55128,6.1894-22.81846,23.64823-22.81846H595.374c15.88724,0,23.186,4.8027,23.186,22.81846v20.13527C618.56,281.55064,613.29509,287.46269,595.374,287.46269Zm-24.48025-12.74858H591.2162c9.79254,0,12.009-2.124,12.009-10.80946V246.81786c0-9.33032-3.14092-11.45433-12.28634-11.45433H571.17112c-9.60766,0-12.28635,2.3991-12.28635,11.54452v17.09131C558.88477,272.40521,561.56346,274.71411,570.89378,274.71411Z" transform="translate(-325 -213.20797)"/><path class="cls-5" d="M656.98163,238.78179l19.86018-15.42726h25.40246v64.10816H686.9117V237.11776h-4.71251l-17.089,13.39345Z" transform="translate(-325 -213.20797)"/><path class="cls-5" d="M813.82928,287.46269H785.65343c-17.18149,0-23.64823-6.372-23.64823-21.894V245.43342c0-17.55128,6.18714-22.81846,23.64823-22.81846h28.17585c15.88724,0,23.18825,4.8027,23.18825,22.81846v20.13527C837.01753,281.55064,831.75034,287.46269,813.82928,287.46269Zm-24.478-12.74858h20.32016c9.7948,0,12.009-2.124,12.009-10.80946V246.81786c0-9.33032-3.14317-11.45433-12.2886-11.45433H789.62637c-9.60991,0-12.2886,2.3991-12.2886,11.54452v17.09131C777.33777,272.40521,780.01646,274.71411,789.35129,274.71411Z" transform="translate(-325 -213.20797)"/><path class="cls-5" d="M925.59918,287.46269H897.42333c-17.18149,0-23.64823-6.372-23.64823-21.894V245.43342c0-17.55128,6.19165-22.81846,23.64823-22.81846h28.17585c15.88724,0,23.18374,4.8027,23.18374,22.81846v20.13527C948.78292,281.55064,943.52024,287.46269,925.59918,287.46269Zm-24.4825-12.74858h20.32467c9.79029,0,12.009-2.124,12.009-10.80946V246.81786c0-9.33032-3.13866-11.45433-12.28409-11.45433h-19.77c-9.6054,0-12.28409,2.3991-12.28409,11.54452v17.09131C889.11218,272.40521,891.79087,274.71411,901.11668,274.71411Z" transform="translate(-325 -213.20797)"/><path class="cls-5" d="M1037.36908,287.46269h-28.17585c-17.18149,0-23.64823-6.372-23.64823-21.894V245.43342c0-17.55128,6.18714-22.81846,23.64823-22.81846h28.17585c15.88273,0,23.18374,4.8027,23.18374,22.81846v20.13527C1060.55282,281.55064,1055.29014,287.46269,1037.36908,287.46269Zm-24.4825-12.74858h20.32467c9.79029,0,12.00449-2.124,12.00449-10.80946V246.81786c0-9.33032-3.13866-11.45433-12.28409-11.45433h-19.77c-9.6054,0-12.28409,2.3991-12.28409,11.54452v17.09131C1000.87757,272.40521,1003.55626,274.71411,1012.88658,274.71411Z" transform="translate(-325 -213.20797)"/><path class="cls-5" d="M1149.13447,287.46269h-28.17585c-17.18149,0-23.64823-6.372-23.64823-21.894V245.43342c0-17.55128,6.19616-22.81846,23.64823-22.81846h28.17585c15.89175,0,23.18825,4.8027,23.18825,22.81846v20.13527C1172.32272,281.55064,1167.05553,287.46269,1149.13447,287.46269Zm-24.478-12.74858h20.32016c9.7948,0,12.01351-2.124,12.01351-10.80946V246.81786c0-9.33032-3.13866-11.45433-12.28409-11.45433h-19.77c-9.6054,0-12.28409,2.3991-12.28409,11.54452v17.09131C1112.652,272.40521,1115.33067,274.71411,1124.65648,274.71411Z" transform="translate(-325 -213.20797)"/><path class="cls-5" d="M331.83652,349.60919l19.86018-15.42727h25.40246v64.10817H361.76659V347.94516h-4.71251l-17.089,13.39345Z" transform="translate(-325 -213.20797)"/><path class="cls-5" d="M488.68417,398.29009H460.50832c-17.18149,0-23.64823-6.372-23.64823-21.894V356.26082c0-17.55128,6.1894-22.81847,23.64823-22.81847h28.17585c15.88724,0,23.186,4.8027,23.186,22.81847v20.13527C511.87016,392.378,506.60523,398.29009,488.68417,398.29009Zm-24.48025-12.74858h20.32242c9.79254,0,12.009-2.124,12.009-10.80946V357.64526c0-9.33032-3.14092-11.45433-12.28634-11.45433H464.48126c-9.60766,0-12.28635,2.3991-12.28635,11.54452v17.0913C452.19491,383.23261,454.8736,385.54151,464.20392,385.54151Z" transform="translate(-325 -213.20797)"/><path class="cls-5" d="M600.45407,398.29009H572.27822c-17.18149,0-23.64823-6.372-23.64823-21.894V356.26082c0-17.55128,6.1894-22.81847,23.64823-22.81847h28.17585c15.88724,0,23.186,4.8027,23.186,22.81847v20.13527C623.64006,392.378,618.37513,398.29009,600.45407,398.29009Zm-24.48025-12.74858h20.32242c9.79254,0,12.009-2.124,12.009-10.80946V357.64526c0-9.33032-3.14092-11.45433-12.28634-11.45433H576.25116c-9.60766,0-12.28635,2.3991-12.28635,11.54452v17.0913C563.96481,383.23261,566.6435,385.54151,575.97382,385.54151Z" transform="translate(-325 -213.20797)"/><path class="cls-5" d="M662.06167,349.60919l19.86018-15.42727h25.40246v64.10817H691.99174V347.94516h-4.71251l-17.089,13.39345Z" transform="translate(-325 -213.20797)"/><path class="cls-5" d="M818.90706,398.29009H790.73122c-17.1815,0-23.64823-6.372-23.64823-21.894V356.26082c0-17.55128,6.19165-22.81847,23.64823-22.81847h28.17584c15.89176,0,23.18825,4.8027,23.18825,22.81847v20.13527C842.09531,392.378,836.82813,398.29009,818.90706,398.29009Zm-24.478-12.74858h20.32016c9.79481,0,12.01352-2.124,12.01352-10.80946V357.64526c0-9.33032-3.14318-11.45433-12.2886-11.45433H794.70866c-9.60991,0-12.2886,2.3991-12.2886,11.54452v17.0913C782.42006,383.23261,785.09875,385.54151,794.42907,385.54151Z" transform="translate(-325 -213.20797)"/><path class="cls-5" d="M880.51692,349.60919l19.86019-15.42727h25.407v64.10817H910.4515V347.94516h-4.717l-17.08679,13.39345Z" transform="translate(-325 -213.20797)"/><path class="cls-5" d="M1037.36908,398.29009h-28.17585c-17.18149,0-23.64823-6.372-23.64823-21.894V356.26082c0-17.55128,6.18714-22.81847,23.64823-22.81847h28.17585c15.88273,0,23.18374,4.8027,23.18374,22.81847v20.13527C1060.55282,392.378,1055.29014,398.29009,1037.36908,398.29009Zm-24.4825-12.74858h20.32467c9.79029,0,12.00449-2.124,12.00449-10.80946V357.64526c0-9.33032-3.13866-11.45433-12.28409-11.45433h-19.77c-9.6054,0-12.28409,2.3991-12.28409,11.54452v17.0913C1000.87757,383.23261,1003.55626,385.54151,1012.88658,385.54151Z" transform="translate(-325 -213.20797)"/><path class="cls-5" d="M1149.13447,398.29009h-28.17585c-17.18149,0-23.64823-6.372-23.64823-21.894V356.26082c0-17.55128,6.19616-22.81847,23.64823-22.81847h28.17585c15.89175,0,23.18825,4.8027,23.18825,22.81847v20.13527C1172.32272,392.378,1167.05553,398.29009,1149.13447,398.29009Zm-24.478-12.74858h20.32016c9.7948,0,12.01351-2.124,12.01351-10.80946V357.64526c0-9.33032-3.13866-11.45433-12.28409-11.45433h-19.77c-9.6054,0-12.28409,2.3991-12.28409,11.54452v17.0913C1112.652,383.23261,1115.33067,385.54151,1124.65648,385.54151Z" transform="translate(-325 -213.20797)"/><path class="cls-5" d="M331.83652,460.43659l19.86018-15.42727h25.40246v64.10817H361.76659V458.77256h-4.71251L339.965,472.166Z" transform="translate(-325 -213.20797)"/><path class="cls-5" d="M438.52413,460.43659l19.86018-15.42727h25.40245v64.10817H468.4542V458.77256h-4.71251l-17.089,13.39344Z" transform="translate(-325 -213.20797)"/><path class="cls-5" d="M595.374,509.11749H567.19818c-17.18149,0-23.64823-6.372-23.64823-21.894V467.08822c0-17.55128,6.1894-22.81847,23.64823-22.81847H595.374c15.88724,0,23.186,4.8027,23.186,22.81847v20.13527C618.56,503.20543,613.29509,509.11749,595.374,509.11749Zm-24.48025-12.74858H591.2162c9.79254,0,12.009-2.124,12.009-10.80946V468.47266c0-9.33032-3.14092-11.45433-12.28634-11.45433H571.17112c-9.60766,0-12.28635,2.3991-12.28635,11.54452v17.0913C558.88477,494.06,561.56346,496.36891,570.89378,496.36891Z" transform="translate(-325 -213.20797)"/><path class="cls-5" d="M656.98163,460.43659l19.86018-15.42727h25.40246v64.10817H686.9117V458.77256h-4.71251l-17.089,13.39344Z" transform="translate(-325 -213.20797)"/><path class="cls-5" d="M813.82928,509.11749H785.65343c-17.18149,0-23.64823-6.372-23.64823-21.894V467.08822c0-17.55128,6.18714-22.81847,23.64823-22.81847h28.17585c15.88724,0,23.18825,4.8027,23.18825,22.81847v20.13527C837.01753,503.20543,831.75034,509.11749,813.82928,509.11749Zm-24.478-12.74858h20.32016c9.7948,0,12.009-2.124,12.009-10.80946V468.47266c0-9.33032-3.14317-11.45433-12.2886-11.45433H789.62637c-9.60991,0-12.2886,2.3991-12.2886,11.54452v17.0913C777.33777,494.06,780.01646,496.36891,789.35129,496.36891Z" transform="translate(-325 -213.20797)"/><path class="cls-5" d="M925.59918,509.11749H897.42333c-17.18149,0-23.64823-6.372-23.64823-21.894V467.08822c0-17.55128,6.19165-22.81847,23.64823-22.81847h28.17585c15.88724,0,23.18374,4.8027,23.18374,22.81847v20.13527C948.78292,503.20543,943.52024,509.11749,925.59918,509.11749Zm-24.4825-12.74858h20.32467c9.79029,0,12.009-2.124,12.009-10.80946V468.47266c0-9.33032-3.13866-11.45433-12.28409-11.45433h-19.77c-9.6054,0-12.28409,2.3991-12.28409,11.54452v17.0913C889.11218,494.06,891.79087,496.36891,901.11668,496.36891Z" transform="translate(-325 -213.20797)"/><path class="cls-5" d="M1037.36908,509.11749h-28.17585c-17.18149,0-23.64823-6.372-23.64823-21.894V467.08822c0-17.55128,6.18714-22.81847,23.64823-22.81847h28.17585c15.88273,0,23.18374,4.8027,23.18374,22.81847v20.13527C1060.55282,503.20543,1055.29014,509.11749,1037.36908,509.11749Zm-24.4825-12.74858h20.32467c9.79029,0,12.00449-2.124,12.00449-10.80946V468.47266c0-9.33032-3.13866-11.45433-12.28409-11.45433h-19.77c-9.6054,0-12.28409,2.3991-12.28409,11.54452v17.0913C1000.87757,494.06,1003.55626,496.36891,1012.88658,496.36891Z" transform="translate(-325 -213.20797)"/><path class="cls-5" d="M1149.13447,509.11749h-28.17585c-17.18149,0-23.64823-6.372-23.64823-21.894V467.08822c0-17.55128,6.19616-22.81847,23.64823-22.81847h28.17585c15.89175,0,23.18825,4.8027,23.18825,22.81847v20.13527C1172.32272,503.20543,1167.05553,509.11749,1149.13447,509.11749Zm-24.478-12.74858h20.32016c9.7948,0,12.01351-2.124,12.01351-10.80946V468.47266c0-9.33032-3.13866-11.45433-12.28409-11.45433h-19.77c-9.6054,0-12.28409,2.3991-12.28409,11.54452v17.0913C1112.652,494.06,1115.33067,496.36891,1124.65648,496.36891Z" transform="translate(-325 -213.20797)"/><path class="cls-5" d="M331.83652,571.264l19.86018-15.42727h25.40246v64.10817H361.76659V569.6h-4.71251L339.965,582.9934Z" transform="translate(-325 -213.20797)"/><path class="cls-5" d="M490.86229,619.94489H462.68645c-17.1815,0-23.64823-6.372-23.64823-21.894V577.91562c0-17.55128,6.18939-22.81847,23.64823-22.81847h28.17584c15.88725,0,23.186,4.8027,23.186,22.81847v20.13526C514.04829,614.03283,508.78336,619.94489,490.86229,619.94489Zm-24.48024-12.74858h20.32241c9.79255,0,12.009-2.124,12.009-10.80946V579.30006c0-9.33032-3.14092-11.45433-12.28635-11.45433H466.65939c-9.60766,0-12.28635,2.39909-12.28635,11.54452v17.0913C454.373,604.8874,457.05173,607.19631,466.38205,607.19631Z" transform="translate(-325 -213.20797)"/><path class="cls-5" d="M554.64577,571.264,574.506,555.83672h25.40246v64.10817H584.57584V569.6h-4.71251L562.77428,582.9934Z" transform="translate(-325 -213.20797)"/><path class="cls-5" d="M663.5115,571.264l19.86018-15.42727h25.40246v64.10817H693.44157V569.6h-4.71251L671.64,582.9934Z" transform="translate(-325 -213.20797)"/><path class="cls-5" d="M772.37723,571.264l19.86019-15.42727h25.40245v64.10817H802.3073V569.6h-4.71251l-17.0913,13.39345Z" transform="translate(-325 -213.20797)"/><path class="cls-5" d="M881.243,571.264l19.86019-15.42727H926.5056v64.10817H911.173V569.6h-4.71251l-17.0868,13.39345Z" transform="translate(-325 -213.20797)"/><path class="cls-5" d="M990.1087,571.264l19.86018-15.42727h25.39794v64.10817h-15.33256V569.6h-4.708L998.235,582.9934Z" transform="translate(-325 -213.20797)"/><path class="cls-5" d="M1149.13447,619.94489h-28.17585c-17.18149,0-23.64823-6.372-23.64823-21.894V577.91562c0-17.55128,6.18714-22.81847,23.64823-22.81847h28.17585c15.88273,0,23.17923,4.8027,23.17923,22.81847v20.13526C1172.3137,614.03283,1167.05553,619.94489,1149.13447,619.94489Zm-24.487-12.74858h20.32918c9.78578,0,12.00449-2.124,12.00449-10.80946V579.30006c0-9.33032-3.13866-11.45433-12.28409-11.45433h-19.77c-9.6054,0-12.28409,2.39909-12.28409,11.54452v17.0913C1112.643,604.8874,1115.32165,607.19631,1124.64746,607.19631Z" transform="translate(-325 -213.20797)"/><path class="cls-5" d="M331.83652,682.09139l19.86018-15.42727h25.40246v64.10817H361.76659V680.42735h-4.71251L339.965,693.8208Z" transform="translate(-325 -213.20797)"/><path class="cls-5" d="M438.52413,682.09139l19.86018-15.42727h25.40245v64.10817H468.4542V680.42735h-4.71251l-17.089,13.39345Z" transform="translate(-325 -213.20797)"/><path class="cls-5" d="M595.374,730.77229H567.19818c-17.18149,0-23.64823-6.372-23.64823-21.894V688.743c0-17.55127,6.1894-22.81846,23.64823-22.81846H595.374c15.88724,0,23.186,4.8027,23.186,22.81846v20.13527C618.56,724.86023,613.29509,730.77229,595.374,730.77229Zm-24.48025-12.74858H591.2162c9.79254,0,12.009-2.124,12.009-10.80946V690.12746c0-9.33032-3.14092-11.45433-12.28634-11.45433H571.17112c-9.60766,0-12.28635,2.39909-12.28635,11.54452V707.309C558.88477,715.7148,561.56346,718.02371,570.89378,718.02371Z" transform="translate(-325 -213.20797)"/><path class="cls-5" d="M656.98163,682.09139l19.86018-15.42727h25.40246v64.10817H686.9117V680.42735h-4.71251l-17.089,13.39345Z" transform="translate(-325 -213.20797)"/><path class="cls-5" d="M813.82928,730.77229H785.65343c-17.18149,0-23.64823-6.372-23.64823-21.894V688.743c0-17.55127,6.18714-22.81846,23.64823-22.81846h28.17585c15.88724,0,23.18825,4.8027,23.18825,22.81846v20.13527C837.01753,724.86023,831.75034,730.77229,813.82928,730.77229Zm-24.478-12.74858h20.32016c9.7948,0,12.009-2.124,12.009-10.80946V690.12746c0-9.33032-3.14317-11.45433-12.2886-11.45433H789.62637c-9.60991,0-12.2886,2.39909-12.2886,11.54452V707.309C777.33777,715.7148,780.01646,718.02371,789.35129,718.02371Z" transform="translate(-325 -213.20797)"/><path class="cls-5" d="M925.59918,730.77229H897.42333c-17.18149,0-23.64823-6.372-23.64823-21.894V688.743c0-17.55127,6.19165-22.81846,23.64823-22.81846h28.17585c15.88724,0,23.18374,4.8027,23.18374,22.81846v20.13527C948.78292,724.86023,943.52024,730.77229,925.59918,730.77229Zm-24.4825-12.74858h20.32467c9.79029,0,12.009-2.124,12.009-10.80946V690.12746c0-9.33032-3.13866-11.45433-12.28409-11.45433h-19.77c-9.6054,0-12.28409,2.39909-12.28409,11.54452V707.309C889.11218,715.7148,891.79087,718.02371,901.11668,718.02371Z" transform="translate(-325 -213.20797)"/><path class="cls-5" d="M1037.36908,730.77229h-28.17585c-17.18149,0-23.64823-6.372-23.64823-21.894V688.743c0-17.55127,6.18714-22.81846,23.64823-22.81846h28.17585c15.88273,0,23.18374,4.8027,23.18374,22.81846v20.13527C1060.55282,724.86023,1055.29014,730.77229,1037.36908,730.77229Zm-24.4825-12.74858h20.32467c9.79029,0,12.00449-2.124,12.00449-10.80946V690.12746c0-9.33032-3.13866-11.45433-12.28409-11.45433h-19.77c-9.6054,0-12.28409,2.39909-12.28409,11.54452V707.309C1000.87757,715.7148,1003.55626,718.02371,1012.88658,718.02371Z" transform="translate(-325 -213.20797)"/><path class="cls-5" d="M1149.13447,730.77229h-28.17585c-17.18149,0-23.64823-6.372-23.64823-21.894V688.743c0-17.55127,6.19616-22.81846,23.64823-22.81846h28.17585c15.89175,0,23.18825,4.8027,23.18825,22.81846v20.13527C1172.32272,724.86023,1167.05553,730.77229,1149.13447,730.77229Zm-24.478-12.74858h20.32016c9.7948,0,12.01351-2.124,12.01351-10.80946V690.12746c0-9.33032-3.13866-11.45433-12.28409-11.45433h-19.77c-9.6054,0-12.28409,2.39909-12.28409,11.54452V707.309C1112.652,715.7148,1115.33067,718.02371,1124.65648,718.02371Z" transform="translate(-325 -213.20797)"/><path class="cls-5" d="M331.83652,792.91653l19.86018-15.42727h25.40246v64.10817H361.76659V791.2525h-4.71251l-17.089,13.39344Z" transform="translate(-325 -213.20797)"/><path class="cls-5" d="M489.41021,841.59743H461.23436c-17.18149,0-23.64823-6.372-23.64823-21.894V799.56816c0-17.55128,6.1894-22.81847,23.64823-22.81847h28.17585c15.88724,0,23.186,4.8027,23.186,22.81847v20.13527C512.59621,835.68537,507.33127,841.59743,489.41021,841.59743ZM464.93,828.84885h20.32242c9.79255,0,12.009-2.124,12.009-10.80946V800.9526c0-9.33032-3.14092-11.45433-12.28634-11.45433H465.2073c-9.60766,0-12.28634,2.3991-12.28634,11.54452v17.0913C452.921,826.54,455.59964,828.84885,464.93,828.84885Z" transform="translate(-325 -213.20797)"/><path class="cls-5" d="M551.74386,792.91653,571.604,777.48926h25.40245v64.10817H581.67393V791.2525h-4.71251l-17.089,13.39344Z" transform="translate(-325 -213.20797)"/><path class="cls-5" d="M659.1575,792.91653l19.86019-15.42727h25.40245v64.10817H689.08757V791.2525h-4.7125L667.286,804.64594Z" transform="translate(-325 -213.20797)"/><path class="cls-5" d="M816.73345,841.59743H788.5576c-17.18149,0-23.64823-6.372-23.64823-21.894V799.56816c0-17.55128,6.18714-22.81847,23.64823-22.81847h28.17585c15.88724,0,23.18825,4.8027,23.18825,22.81847v20.13527C839.9217,835.68537,834.65451,841.59743,816.73345,841.59743Zm-24.478-12.74858h20.32016c9.79481,0,12.009-2.124,12.009-10.80946V800.9526c0-9.33032-3.14317-11.45433-12.2886-11.45433H792.53054c-9.60991,0-12.2886,2.3991-12.2886,11.54452v17.0913C780.24194,826.54,782.92063,828.84885,792.25545,828.84885Z" transform="translate(-325 -213.20797)"/><path class="cls-5" d="M929.22939,841.59743H901.05354c-17.18149,0-23.64823-6.372-23.64823-21.894V799.56816c0-17.55128,6.18714-22.81847,23.64823-22.81847h28.17585c15.88273,0,23.18374,4.8027,23.18374,22.81847v20.13527C952.41313,835.68537,947.15045,841.59743,929.22939,841.59743Zm-24.4825-12.74858h20.32467c9.79029,0,12.00449-2.124,12.00449-10.80946V800.9526c0-9.33032-3.13866-11.45433-12.28409-11.45433h-19.77c-9.6054,0-12.28409,2.3991-12.28409,11.54452v17.0913C892.73788,826.54,895.41657,828.84885,904.74689,828.84885Z" transform="translate(-325 -213.20797)"/><path class="cls-5" d="M1041.72082,841.59743H1013.545c-17.18149,0-23.64822-6.372-23.64822-21.894V799.56816c0-17.55128,6.19165-22.81847,23.64822-22.81847h28.17585c15.88724,0,23.18374,4.8027,23.18374,22.81847v20.13527C1064.90456,835.68537,1059.64188,841.59743,1041.72082,841.59743Zm-24.4825-12.74858H1037.563c9.79029,0,12.009-2.124,12.009-10.80946V800.9526c0-9.33032-3.13867-11.45433-12.2841-11.45433h-19.77c-9.6054,0-12.28409,2.3991-12.28409,11.54452v17.0913C1005.23382,826.54,1007.91251,828.84885,1017.23832,828.84885Z" transform="translate(-325 -213.20797)"/><path class="cls-5" d="M1104.05672,792.91653l19.86019-15.42727h25.39794v64.10817h-15.33257V791.2525h-4.708l-17.0913,13.39344Z" transform="translate(-325 -213.20797)"/><path class="cls-5" d="M331.83652,903.74393l19.86018-15.42727h25.40246v64.10817H361.76659V902.07989h-4.71251l-17.089,13.39345Z" transform="translate(-325 -213.20797)"/><path class="cls-5" d="M439.25017,903.74393l19.86018-15.42727h25.40246v64.10817H469.18024V902.07989h-4.71251l-17.08905,13.39345Z" transform="translate(-325 -213.20797)"/><path class="cls-5" d="M596.82386,952.42483H568.648c-17.18149,0-23.64823-6.372-23.64823-21.894V910.39556c0-17.55128,6.1894-22.81847,23.64823-22.81847h28.17585c15.88724,0,23.186,4.8027,23.186,22.81847v20.13526C620.00985,946.51277,614.74492,952.42483,596.82386,952.42483Zm-24.48025-12.74858H592.666c9.79255,0,12.009-2.124,12.009-10.80946V911.78c0-9.33032-3.14092-11.45433-12.28634-11.45433H572.621c-9.60766,0-12.28635,2.39909-12.28635,11.54452v17.0913C560.3346,937.36734,563.01329,939.67625,572.34361,939.67625Z" transform="translate(-325 -213.20797)"/><path class="cls-5" d="M659.1575,903.74393l19.86019-15.42727h25.40245v64.10817H689.08757V902.07989h-4.7125L667.286,915.47334Z" transform="translate(-325 -213.20797)"/><path class="cls-5" d="M816.73345,952.42483H788.5576c-17.18149,0-23.64823-6.372-23.64823-21.894V910.39556c0-17.55128,6.18714-22.81847,23.64823-22.81847h28.17585c15.88724,0,23.18825,4.8027,23.18825,22.81847v20.13526C839.9217,946.51277,834.65451,952.42483,816.73345,952.42483Zm-24.478-12.74858h20.32016c9.79481,0,12.009-2.124,12.009-10.80946V911.78c0-9.33032-3.14317-11.45433-12.2886-11.45433H792.53054c-9.60991,0-12.2886,2.39909-12.2886,11.54452v17.0913C780.24194,937.36734,782.92063,939.67625,792.25545,939.67625Z" transform="translate(-325 -213.20797)"/><path class="cls-5" d="M929.22939,952.42483H901.05354c-17.18149,0-23.64823-6.372-23.64823-21.894V910.39556c0-17.55128,6.18714-22.81847,23.64823-22.81847h28.17585c15.88273,0,23.18374,4.8027,23.18374,22.81847v20.13526C952.41313,946.51277,947.15045,952.42483,929.22939,952.42483Zm-24.4825-12.74858h20.32467c9.79029,0,12.00449-2.124,12.00449-10.80946V911.78c0-9.33032-3.13866-11.45433-12.28409-11.45433h-19.77c-9.6054,0-12.28409,2.39909-12.28409,11.54452v17.0913C892.73788,937.36734,895.41657,939.67625,904.74689,939.67625Z" transform="translate(-325 -213.20797)"/><path class="cls-5" d="M1041.72082,952.42483H1013.545c-17.18149,0-23.64822-6.372-23.64822-21.894V910.39556c0-17.55128,6.19165-22.81847,23.64822-22.81847h28.17585c15.88724,0,23.18374,4.8027,23.18374,22.81847v20.13526C1064.90456,946.51277,1059.64188,952.42483,1041.72082,952.42483Zm-24.4825-12.74858H1037.563c9.79029,0,12.009-2.124,12.009-10.80946V911.78c0-9.33032-3.13867-11.45433-12.2841-11.45433h-19.77c-9.6054,0-12.28409,2.39909-12.28409,11.54452v17.0913C1005.23382,937.36734,1007.91251,939.67625,1017.23832,939.67625Z" transform="translate(-325 -213.20797)"/><path class="cls-5" d="M1104.05672,903.74393l19.86019-15.42727h25.39794v64.10817h-15.33257V902.07989h-4.708l-17.0913,13.39345Z" transform="translate(-325 -213.20797)"/><path class="cls-5" d="M331.83652,1014.57133l19.86018-15.42727h25.40246v64.10817H361.76659v-50.34494h-4.71251l-17.089,13.39345Z" transform="translate(-325 -213.20797)"/><path class="cls-5" d="M487.96038,1063.25223H459.78453c-17.18149,0-23.64823-6.372-23.64823-21.894V1021.223c0-17.55127,6.1894-22.81846,23.64823-22.81846h28.17585c15.88724,0,23.186,4.8027,23.186,22.81846v20.13527C511.14638,1057.34017,505.88144,1063.25223,487.96038,1063.25223Zm-24.48025-12.74858h20.32242c9.79255,0,12.009-2.124,12.009-10.80946V1022.6074c0-9.33032-3.14092-11.45433-12.28634-11.45433H463.75747c-9.60765,0-12.28634,2.39909-12.28634,11.54452v17.0913C451.47113,1048.19474,454.14982,1050.50365,463.48013,1050.50365Z" transform="translate(-325 -213.20797)"/><path class="cls-5" d="M599.002,1063.25223H570.82614c-17.1815,0-23.64823-6.372-23.64823-21.894V1021.223c0-17.55127,6.18939-22.81846,23.64823-22.81846H599.002c15.88725,0,23.186,4.8027,23.186,22.81846v20.13527C622.188,1057.34017,616.92305,1063.25223,599.002,1063.25223Zm-24.48024-12.74858h20.32241c9.79255,0,12.009-2.124,12.009-10.80946V1022.6074c0-9.33032-3.14092-11.45433-12.28635-11.45433H574.79908c-9.60766,0-12.28635,2.39909-12.28635,11.54452v17.0913C562.51273,1048.19474,565.19142,1050.50365,574.52174,1050.50365Z" transform="translate(-325 -213.20797)"/><path class="cls-5" d="M659.8858,1014.57133,679.746,999.14406h25.40246v64.10817H689.81587v-50.34494h-4.71251l-17.089,13.39345Z" transform="translate(-325 -213.20797)"/><path class="cls-5" d="M816.0074,1063.25223H787.83156c-17.1815,0-23.64823-6.372-23.64823-21.894V1021.223c0-17.55127,6.19165-22.81846,23.64823-22.81846H816.0074c15.88725,0,23.18375,4.8027,23.18375,22.81846v20.13527C839.19115,1057.34017,833.92847,1063.25223,816.0074,1063.25223Zm-24.4825-12.74858h20.32467c9.7903,0,12.009-2.124,12.009-10.80946V1022.6074c0-9.33032-3.13867-11.45433-12.28409-11.45433h-19.77c-9.60541,0-12.2841,2.39909-12.2841,11.54452v17.0913C779.5204,1048.19474,782.19909,1050.50365,791.5249,1050.50365Z" transform="translate(-325 -213.20797)"/><path class="cls-5" d="M927.05126,1063.25223H898.87542c-17.1815,0-23.64823-6.372-23.64823-21.894V1021.223c0-17.55127,6.19165-22.81846,23.64823-22.81846h28.17584c15.88725,0,23.18374,4.8027,23.18374,22.81846v20.13527C950.235,1057.34017,944.97233,1063.25223,927.05126,1063.25223Zm-24.4825-12.74858h20.32467c9.79029,0,12.009-2.124,12.009-10.80946V1022.6074c0-9.33032-3.13867-11.45433-12.28409-11.45433h-19.77c-9.6054,0-12.28409,2.39909-12.28409,11.54452v17.0913C890.56426,1048.19474,893.243,1050.50365,902.56876,1050.50365Z" transform="translate(-325 -213.20797)"/><path class="cls-5" d="M1038.09061,1063.25223h-28.17585c-17.18149,0-23.64823-6.372-23.64823-21.894V1021.223c0-17.55127,6.19166-22.81846,23.64823-22.81846h28.17585c15.89175,0,23.18825,4.8027,23.18825,22.81846v20.13527C1061.27886,1057.34017,1056.01167,1063.25223,1038.09061,1063.25223Zm-24.478-12.74858h20.32016c9.7948,0,12.01352-2.124,12.01352-10.80946V1022.6074c0-9.33032-3.14318-11.45433-12.28861-11.45433h-19.76548c-9.60991,0-12.2886,2.39909-12.2886,11.54452v17.0913C1001.60361,1048.19474,1004.2823,1050.50365,1013.61262,1050.50365Z" transform="translate(-325 -213.20797)"/><path class="cls-5" d="M1149.13447,1063.25223h-28.17585c-17.18149,0-23.64823-6.372-23.64823-21.894V1021.223c0-17.55127,6.19616-22.81846,23.64823-22.81846h28.17585c15.89175,0,23.18825,4.8027,23.18825,22.81846v20.13527C1172.32272,1057.34017,1167.05553,1063.25223,1149.13447,1063.25223Zm-24.478-12.74858h20.32016c9.7948,0,12.01351-2.124,12.01351-10.80946V1022.6074c0-9.33032-3.13866-11.45433-12.28409-11.45433h-19.77c-9.6054,0-12.28409,2.39909-12.28409,11.54452v17.0913C1112.652,1048.19474,1115.33067,1050.50365,1124.65648,1050.50365Z" transform="translate(-325 -213.20797)"/></g></g><path class="cls-2" d="M454.85556,1088.36607v110.71015H428.37532v-88.6989H359.938v88.6989H333.45771V1088.36607Z" transform="translate(-325 -213.20797)"/><path class="cls-2" d="M565.232,1199.07622H516.57591c-29.67077,0-40.83874-11.00788-40.83874-37.80831V1126.49c0-30.30887,10.6877-39.40018,40.83874-39.40018H565.232c27.43853,0,40.04055,8.29311,40.04055,39.40018v34.77787C605.27255,1188.86653,596.179,1199.07622,565.232,1199.07622Zm-42.275-22.01577h35.0958c16.91091,0,20.73955-3.66628,20.73955-18.66514v-29.51068c0-16.11272-5.425-19.779-21.21757-19.779H523.435c-16.59074,0-21.21531,4.1443-21.21531,19.93684v29.51519C502.21967,1173.074,506.84424,1177.06045,522.957,1177.06045Z" transform="translate(-325 -213.20797)"/><path class="cls-2" d="M652.312,1199.07622h-26.4825V1088.36607H701.286c27.91655,0,38.92443,10.84553,38.92443,38.76433,0,28.07664-11.32581,39.24235-38.6065,39.24235H652.312Zm0-54.71923h44.18711c13.40021,0,17.22884-5.26268,17.22884-17.22659,0-10.85-3.35062-16.75308-17.22884-16.75308H652.312Z" transform="translate(-325 -213.20797)"/><path class="cls-2" d="M873.71648,1088.36607v22.01125H826.9747v88.6989H800.48994v-88.6989H754.23069v-22.01125Z" transform="translate(-325 -213.20797)"/><path class="cls-2" d="M869.39179,1199.07622l58.70569-110.71015h39.24686l58.22317,110.71015H994.46044l-14.20066-27.9188H914.69953l-14.3585,27.9188ZM969.57208,1150.26l-21.05523-41.15441h-1.27621L925.38723,1150.26Z" transform="translate(-325 -213.20797)"/><path class="cls-2" d="M1163.06005,1088.36607v110.71015H1136.5798v-88.6989h-62.21865v48.496c0,28.39682-11.64824,40.2029-31.42725,40.2029h-11.16572v-22.01577c13.55579,0,16.10821-5.10484,16.10821-21.21756v-67.47682Z" transform="translate(-325 -213.20797)"/><path class="cls-2" d="M340.8196,1277.51131H330.47914v-43.22882H340.8196Z" transform="translate(-325 -213.20797)"/><path class="cls-2" d="M395.88832,1234.28249v8.59526H377.63805v34.63356H367.29759v-34.63356H349.23222v-8.59526Z" transform="translate(-325 -213.20797)"/><path class="cls-2" d="M451.16222,1253.092v8.59976h-25.416V1253.092Z" transform="translate(-325 -213.20797)"/><path class="cls-2" d="M493.5951,1246.74246v23.66627h16.63132v-23.66627h10.34047v23.66627h16.63132v-23.66627h10.34272v30.76885h-64.284v-30.76885Z" transform="translate(-325 -213.20797)"/><path class="cls-2" d="M566.24891,1257.76387h3.79932l10.4036-11.02141h11.646L577.71,1261.00626l15.69784,16.505h-12.3337L570.04823,1264.181h-3.79932v13.33031H555.90845v-30.76885h10.34046Z" transform="translate(-325 -213.20797)"/><path class="cls-2" d="M625.93544,1246.61619c9.03043,0,13.51746,5.48365,13.51746,12.3337v6.53889c0,7.03945-4.67192,12.02253-13.45658,12.02253H611.54763c-8.65839,0-13.51746-5.04622-13.51746-12.14429v-6.41713c0-6.79143,4.42164-12.3337,13.51746-12.3337Zm-3.48816,7.10259h-7.03945c-4.79594,0-7.0372,1.99323-7.0372,5.9797v5.04171c0,3.86471,2.24126,5.66854,7.0372,5.66854h7.03945c4.54566,0,6.66516-1.61894,6.66516-5.72717v-4.92446C629.11244,1256.14493,626.99294,1253.71878,622.44728,1253.71878Z" transform="translate(-325 -213.20797)"/><path class="cls-2" d="M687.36492,1246.74246v30.76885H677.02671v-23.67077h-15.885v10.77789c0,8.53212-4.11048,12.89288-11.83539,12.89288h-4.35851v-7.10258c5.35513,0,6.22773-.93349,6.22773-7.22435v-16.44192Z" transform="translate(-325 -213.20797)"/><path class="cls-2" d="M696.90944,1255.64888c0-5.04622,2.74182-8.90642,12.46-8.90642h15.26042c9.71588,0,13.08,4.85682,13.08,10.83652v19.93233H727.36939v-3.4859c-1.743,2.30439-2.80271,3.4859-6.54115,3.4859H707.00187c-6.29086,0-10.34046-2.49379-10.34046-7.84666v-3.73844c0-5.10936,2.8027-8.16234,12.45771-8.16234H721.64c3.05073,0,4.60879.99662,5.72942,2.98985v-3.8602c0-3.11612-1.743-3.73844-5.66854-3.73844H710.73806c-3.301,0-3.98647.31116-3.98647,1.49718v.99662Zm9.84215,12.02253c0,2.48929,1.18377,3.42277,4.92221,3.42277h10.65162c3.79932,0,5.044-.87035,5.044-3.42277,0-2.49379-1.24465-3.49041-5.044-3.49041H711.6738C708.05937,1264.181,706.75159,1264.99272,706.75159,1267.67141Z" transform="translate(-325 -213.20797)"/><path class="cls-2" d="M775.04239,1258.88675v-12.14429h35.38216v23.66627h4.54565v16.3833h-9.4656v-9.28072h-28.717v9.28072H767.322v-16.3833h3.549C773.79775,1267.41888,775.04239,1263.74357,775.04239,1258.88675Zm25.04169-5.04621H785.00856v5.85794a17.4357,17.4357,0,0,1-3.17474,10.71025h18.25026Z" transform="translate(-325 -213.20797)"/><path class="cls-2" d="M860.64321,1246.74246v30.76885H850.30275v-23.67077H834.42v10.77789c0,8.53212-4.10822,12.89288-11.83313,12.89288h-4.36076v-7.10258c5.35738,0,6.22772-.93349,6.22772-7.22435v-16.44192Z" transform="translate(-325 -213.20797)"/><path class="cls-2" d="M891.86753,1266.48539l-10.09244,11.02592h-12.708l10.90416-11.02592c-6.1691,0-10.09243-3.23787-10.09243-8.15782V1254.526c0-5.35738,4.11273-7.78353,10.40359-7.78353h30.71023v30.76885h-10.345v-11.02592Zm8.78015-13.33031H884.95435c-3.73844,0-4.98309.87486-4.98309,3.36415,0,2.67869,1.36641,3.55354,4.98309,3.55354h15.69333Z" transform="translate(-325 -213.20797)"/><path class="cls-2" d="M948.32294,1258.88675v-12.14429h35.37764v23.66627h4.55017v16.3833h-9.47012v-9.28072H950.06815v9.28072H940.598v-16.3833h3.549C947.0783,1267.41888,948.32294,1263.74357,948.32294,1258.88675Zm25.04169-5.04621H958.28911v5.85794a17.40964,17.40964,0,0,1-3.17925,10.71025h18.25477Z" transform="translate(-325 -213.20797)"/><path class="cls-2" d="M1002.15829,1264.3704v1.18151c0,2.67869.681,5.54227,4.92,5.54227h11.9594c2.48929,0,3.67531-1.24464,3.67531-3.6753h9.903c0,5.42051-2.55242,10.09243-12.956,10.09243h-15.13865c-8.65839,0-12.70348-5.04622-12.70348-11.77451v-7.78353c0-5.42051,3.6753-11.33708,12.89288-11.33708h14.70123c10.15106,0,13.204,6.354,13.204,12.51859v5.23562Zm14.75985-11.33708h-9.52874c-4.0496,0-5.23111,2.61556-5.23111,5.60541H1022.713C1022.713,1255.64888,1021.342,1253.03332,1016.91814,1253.03332Z" transform="translate(-325 -213.20797)"/><path class="cls-2" d="M1052.18755,1253.84054h-14.823v-7.09808H1077.351v7.09808h-14.823v23.67077h-10.34046Z" transform="translate(-325 -213.20797)"/><path class="cls-2" d="M1091.25854,1264.3704v1.18151c0,2.67869.68545,5.54227,4.91995,5.54227h11.9594c2.48929,0,3.67531-1.24464,3.67531-3.6753h9.903c0,5.42051-2.55242,10.09243-12.956,10.09243h-15.13414c-8.65839,0-12.708-5.04622-12.708-11.77451v-7.78353c0-5.42051,3.6753-11.33708,12.89288-11.33708h14.70123c10.15106,0,13.204,6.354,13.204,12.51859v5.23562Zm14.75985-11.33708h-9.52874c-4.0496,0-5.23111,2.61556-5.23111,5.60541h20.55466C1111.8132,1255.64888,1110.44229,1253.03332,1106.01839,1253.03332Z" transform="translate(-325 -213.20797)"/><path class="cls-2" d="M1128.76921,1246.74246h9.28071v23.66627h1.12289l15.69333-23.66627h14.76436v30.76885h-9.28071v-23.67077h-1.37091l-15.19728,23.67077h-15.01239Zm19.558-8.16234c2.24126,0,4.98309-.37429,4.98309-4.36076h6.79142c0,6.91318-3.24238,9.407-11.77451,9.407s-11.77451-2.4938-11.77451-9.407h6.79143C1143.34417,1238.20583,1145.89659,1238.58012,1148.32725,1238.58012Z" transform="translate(-325 -213.20797)"/><path class="cls-6" d="M921.75382,715.41886c49.87967-14.46084,83.30773-27.38707,104.84311-37.11334a64.21228,64.21228,0,0,0,37.48693-53.89947c.25981-3.46483.62326-7.3577,1.1398-11.777,4.41657-37.78618,12.90642-53.14679,23.53239-90.50442,12.12739-42.63623,23.04479-81.01725,19.77-128.43561-1.47857-21.40978-4.01718-53.20908-23.19191-87.75512-28.31452-51.01292-73.70075-73.4165-88.45-79.94764-54.67525-24.21052-146.15839-6.54044-146.15839-6.54044s-74.27516,19.0583-118.15786,54.394c-88.34251,70.8975-103.90069,181.53379-76.692,283.19957,10.09159,40.594,30.59424,102.7995,75.6703,171.50349C731.54615,728.54286,843.67258,739.73277,921.75382,715.41886Z" transform="translate(-325 -213.20797)"/><path class="cls-7" d="M931.45955,712.16593c-6.54289-14.00364-9.556-35.33263-10.93994-52.70424a55.43822,55.43822,0,0,1,19.38175-46.6092l0,0a55.53408,55.53408,0,0,0,18.31148-30.65967l18.73461-87.4464S994.01663,341.99865,910.15679,294.43,698.10748,322.88092,664.788,405.70369c-24.53352,60.98338-1.73527,153.68037,11.99385,198.32633a67.23481,67.23481,0,0,0,30.79625,38.53516l0,0a67.35737,67.35737,0,0,1,29.4241,34.55077s5.93085,52.37178,20.1165,53.14775C871.9333,736.54418,931.45955,712.16593,931.45955,712.16593Z" transform="translate(-325 -213.20797)"/><path class="cls-6" d="M858.45409,923.298c-.93348-.86555-1.8213-1.76916-2.72942-2.65586-13.30467,12.95264-43.45092,52.26433-43.45092,142.61176H920.45149s2.33343-75.16256-9.41064-116.474A104.54089,104.54089,0,0,1,858.45409,923.298Z" transform="translate(-325 -213.20797)"/><path class="cls-6" d="M1027.01114,759.79114s-28.52788-45.6499-59.14679-57.22655a1.708,1.708,0,0,1-.43714.7314c-30.2852,41.17076-99.34686,52.50333-143.3595,28.26829a2.7264,2.7264,0,0,1-.57863-.374c-3.7858,5.75027-28.644,45.85593-19.21053,94.29528,3.82525,19.6426,12.89063,37.20233,22.72631,51.47853a177.31049,177.31049,0,0,0,36.95233,38.81028c47.61579,33.372,106.59487,19.36413,146.23294-19.57327,15.0107-14.3723,26.42895-32.92217,30.8892-53.28912.01748-.0854.03354-.17052.05074-.25592.551-2.55214.95969-5.13979,1.28551-7.74407C1047.47251,794.01123,1027.01114,759.79114,1027.01114,759.79114Z" transform="translate(-325 -213.20797)"/><path class="cls-6" d="M1040.06552,865.921a104.8241,104.8241,0,0,1-19.57579,35.19218c-.595,29.15443.54847,95.14027,18.83622,162.125,0,0,70.19356.01579,135.67405.01579C1175,1063.25392,1129.65055,897.0985,1040.06552,865.921Z" transform="translate(-325 -213.20797)"/><path class="cls-8" d="M745.49761,567.62476,717.74482,575.983l-8.49689,2.586s-27.75308-52.874-25.3055-110.8274c2.49351-57.95343,42.57605-77.11745,43.40723-31.30887.13867,6.88049.64656,14.63865,1.43151,22.85821,1.6164,17.363,4.43319,36.85,7.29621,54.39791a.9018.9018,0,0,0,.04622.32328C739.44829,537.19328,743.92771,559.959,745.49761,567.62476Z" transform="translate(-325 -213.20797)"/><path class="cls-9" d="M744.64117,563.37l-26.70081,8.0414c-4.26515-8.97448-18.171-41.0956-16.66038-75.88255,1.37725-32.56557,19.59249-47.80423,27.27839-36.38628,1.55513,16.70485,4.26515,35.4532,7.01965,52.33594a.86756.86756,0,0,0,.04447.311C738.82115,534.092,743.13078,555.99482,744.64117,563.37Z" transform="translate(-325 -213.20797)"/><path class="cls-8" d="M910.07636,462.10767a524.85672,524.85672,0,0,1-7.94249,75.82462l-48.20993,6.511L842.79486,545.921s-64.049-165.687,15.51577-180.27913C902.78015,357.46826,911.23081,412.2354,910.07636,462.10767Z" transform="translate(-325 -213.20797)"/><path class="cls-9" d="M907.84537,461.01122a538.35555,538.35555,0,0,1-7.47488,74.56345l-45.37159,6.4027c-5.17167-14.57672-45.58883-134.005,12.55956-145.13053C898.154,390.98905,906.84589,425.04657,907.84537,461.01122Z" transform="translate(-325 -213.20797)"/><path class="cls-8" d="M770.96651,599.6498s41.04417-5.60086,63.33416-23.29223c0,0-13.40256,40.52643-33.2376,56.85677C801.06307,633.21434,780.65391,616.8055,770.96651,599.6498Z" transform="translate(-325 -213.20797)"/><path class="cls-7" d="M1087.862,485.33538c-5.67981,24.70516-15.562,45.4853-26.22912,57.538-7.34244,8.40417-15.10032,12.56031-22.07326,10.94419-17.03944-3.92531-23.04281-40.95994-13.39147-82.70511,3.925-16.9935,9.83595-32.186,16.624-43.9154,9.83595-17.08566,21.51914-26.87568,31.63215-24.56677C1091.464,406.55558,1097.51332,443.5905,1087.862,485.33538Z" transform="translate(-325 -213.20797)"/><path class="cls-8" d="M1079.18048,497.52646c-4.10992,17.73223-10.39007,33.47911-17.54762,45.34691-7.34244,8.40417-15.10032,12.56031-22.07326,10.94419-17.03944-3.92531-23.04281-40.95994-13.39147-82.70511,3.925-16.9935,9.83595-32.186,16.624-43.9154,7.61949-9.14317,15.70066-13.761,22.99687-12.09863C1082.7825,419.02372,1088.73938,455.92,1079.18048,497.52646Z" transform="translate(-325 -213.20797)"/><path class="cls-6" d="M670.18821,930.99616c2.45265-16.19277,2.54059-33.17782-.97153-49.19359-4.46476-19.15556-13.4935-37.0676-27.69135-50.51686a22.35451,22.35451,0,0,0-2.15755-1.83258c-.54566-.28664-1.09075-.57581-1.6677-.94785a11.82778,11.82778,0,0,1-1.46927-1.0296c-12.56256-9.17924-30.6237-35.24517-32.04563-50.07435-1.70913-17.8227-32.46981-4.62965-24.43515,19.18205,8.03438,23.81142,17.542,38.27448,17.542,38.27448s-32.15978,17.78465-78.12056-3.34216a11.86787,11.86787,0,0,0-11.52112.50282c-4.05017,2.70744-6.9425,8.32384.2049,19.91571,11.21053,18.18205,42.883,23.7573,59.00924,23.59919a7.28554,7.28554,0,0,1,.94419,14.52507c-10.3616,1.06623-31.42133.83455-62.17947-10.92446a10.1021,10.1021,0,0,0-10.94954,2.104c-2.83061,2.99211-4.37034,8.29143.79228,17.5214,9.62654,17.21081,62.66341,25.05776,83.92156,19.20827a5.12118,5.12118,0,0,1,2.92587,9.81172c-7.67868,2.48139-22.308,6.56425-34.7914,6.3182a14.0085,14.0085,0,0,0-10.88781,4.48985c-3.31595,3.79058-4.46646,9.77507,6.79622,17.65415,18.25082,12.768,90.943,1.38585,125.25692-17.72236C669.23218,936.0125,669.75727,933.5094,670.18821,930.99616Z" transform="translate(-325 -213.20797)"/><path class="cls-6" d="M763.78564,785.26518c-8.59385-1.36161-17.3289,1.36725-24.23363,6.66234-13.14457,10.08-43.22431,31.0197-73.08,37.34918,15.62146,28.29676,18.04339,63.3965,8.96589,94.19917a137.45478,137.45478,0,0,1-4.58,13.7762c1.43658-.85682,2.82384-1.72238,4.09554-2.60626,3.42671-2.3819,68.85872-42.978,88.36547-74.01881C783.87863,827.91,790.50856,789.49855,763.78564,785.26518Z" transform="translate(-325 -213.20797)"/><path class="cls-6" d="M1119.90958,589.79018c14.45376,10.6209,30.56987,50.24178,25.99828,60.67807a61.50275,61.50275,0,0,1-3.73083,6.92446,182.12356,182.12356,0,0,0,32.823,93.64V638.231c0-8.68151-.27706-17.27056-.78495-25.81339-.92362.60005-1.43151.87739-1.43151.87739s-7.527-15.56227-23.874-34.63356C1132.56233,559.54359,1105.502,579.2155,1119.90958,589.79018Z" transform="translate(-325 -213.20797)"/><path class="cls-6" d="M1143.53808,703.22017a199.88743,199.88743,0,0,1-11.4191-32.87652c-20.76294,22.13273-53.77728,37.0755-69.05461,43.15751-8.08116,3.23253-14.87315,9.32638-18.10173,17.40923-6.51126,16.301,8.45039,41.65272,64.9726,38.18937,17.74434-1.08738,43.11692-8.96025,64.87057-17.8864A180.94073,180.94073,0,0,1,1143.53808,703.22017Z" transform="translate(-325 -213.20797)"/><path class="cls-7" d="M933.1654,799.71585a36.56755,36.56755,0,0,1-36.573,36.573,38.2455,38.2455,0,0,1-8.03494-.8774,36.57841,36.57841,0,1,1,43.68429-43.77673A35.82806,35.82806,0,0,1,933.1654,799.71585Z" transform="translate(-325 -213.20797)"/><path class="cls-8" d="M933.1654,799.71585a36.56755,36.56755,0,0,1-36.573,36.573,38.2455,38.2455,0,0,1-8.03494-.8774,31.405,31.405,0,1,1,43.68429-43.77673A35.82806,35.82806,0,0,1,933.1654,799.71585Z" transform="translate(-325 -213.20797)"/></svg>