<svg id="Слой_1" data-name="Слой 1" xmlns="http://www.w3.org/2000/svg" xmlns:xlink="http://www.w3.org/1999/xlink" viewBox="0 0 850 850.04594"><defs><style>.cls-1{fill:none;}.cls-2{fill:#3a0ca3;}.cls-3{clip-path:url(#clip-path);}.cls-4{opacity:0.5;}.cls-5{fill:#3f37c9;}.cls-6{fill:#4cc9f0;}.cls-7{fill:#4361ee;}.cls-8{fill:#80ffdb;}.cls-9{fill:#fff;}</style><clipPath id="clip-path" transform="translate(-325 -324.97703)"><path class="cls-1" d="M1175,750v425.023H325V750c0-234.72327,190.3-425.023,425.02325-425.023a424.97149,424.97149,0,0,1,424.1918,399.20958C1174.72294,732.72944,1175,741.3185,1175,750Z"/></clipPath></defs><path class="cls-2" d="M1175,750v425.023H325V750c0-234.72327,190.3-425.023,425.02325-425.023a424.97149,424.97149,0,0,1,424.1918,399.20958C1174.72294,732.72944,1175,741.3185,1175,750Z" transform="translate(-325 -324.97703)"/><g class="cls-3"><g class="cls-4"><path class="cls-5" d="M331.83652,350.55085l19.86018-15.42727h25.40246v64.10817H361.76659V348.88681h-4.71251l-17.089,13.39345Z" transform="translate(-325 -324.97703)"/><path class="cls-5" d="M438.52413,350.55085l19.86018-15.42727h25.40245v64.10817H468.4542V348.88681h-4.71251l-17.089,13.39345Z" transform="translate(-325 -324.97703)"/><path class="cls-5" d="M595.374,399.23175H567.19818c-17.18149,0-23.64823-6.372-23.64823-21.894V357.20248c0-17.55128,6.1894-22.81847,23.64823-22.81847H595.374c15.88724,0,23.186,4.8027,23.186,22.81847v20.13526C618.56,393.31969,613.29509,399.23175,595.374,399.23175Zm-24.48025-12.74858H591.2162c9.79254,0,12.009-2.124,12.009-10.80946V358.58692c0-9.33032-3.14092-11.45433-12.28634-11.45433H571.17112c-9.60766,0-12.28635,2.39909-12.28635,11.54452v17.0913C558.88477,384.17426,561.56346,386.48317,570.89378,386.48317Z" transform="translate(-325 -324.97703)"/><path class="cls-5" d="M656.98163,350.55085l19.86018-15.42727h25.40246v64.10817H686.9117V348.88681h-4.71251l-17.089,13.39345Z" transform="translate(-325 -324.97703)"/><path class="cls-5" d="M813.82928,399.23175H785.65343c-17.18149,0-23.64823-6.372-23.64823-21.894V357.20248c0-17.55128,6.18714-22.81847,23.64823-22.81847h28.17585c15.88724,0,23.18825,4.8027,23.18825,22.81847v20.13526C837.01753,393.31969,831.75034,399.23175,813.82928,399.23175Zm-24.478-12.74858h20.32016c9.7948,0,12.009-2.124,12.009-10.80946V358.58692c0-9.33032-3.14317-11.45433-12.2886-11.45433H789.62637c-9.60991,0-12.2886,2.39909-12.2886,11.54452v17.0913C777.33777,384.17426,780.01646,386.48317,789.35129,386.48317Z" transform="translate(-325 -324.97703)"/><path class="cls-5" d="M925.59918,399.23175H897.42333c-17.18149,0-23.64823-6.372-23.64823-21.894V357.20248c0-17.55128,6.19165-22.81847,23.64823-22.81847h28.17585c15.88724,0,23.18374,4.8027,23.18374,22.81847v20.13526C948.78292,393.31969,943.52024,399.23175,925.59918,399.23175Zm-24.4825-12.74858h20.32467c9.79029,0,12.009-2.124,12.009-10.80946V358.58692c0-9.33032-3.13866-11.45433-12.28409-11.45433h-19.77c-9.6054,0-12.28409,2.39909-12.28409,11.54452v17.0913C889.11218,384.17426,891.79087,386.48317,901.11668,386.48317Z" transform="translate(-325 -324.97703)"/><path class="cls-5" d="M1037.36908,399.23175h-28.17585c-17.18149,0-23.64823-6.372-23.64823-21.894V357.20248c0-17.55128,6.18714-22.81847,23.64823-22.81847h28.17585c15.88273,0,23.18374,4.8027,23.18374,22.81847v20.13526C1060.55282,393.31969,1055.29014,399.23175,1037.36908,399.23175Zm-24.4825-12.74858h20.32467c9.79029,0,12.00449-2.124,12.00449-10.80946V358.58692c0-9.33032-3.13866-11.45433-12.28409-11.45433h-19.77c-9.6054,0-12.28409,2.39909-12.28409,11.54452v17.0913C1000.87757,384.17426,1003.55626,386.48317,1012.88658,386.48317Z" transform="translate(-325 -324.97703)"/><path class="cls-5" d="M1149.13447,399.23175h-28.17585c-17.18149,0-23.64823-6.372-23.64823-21.894V357.20248c0-17.55128,6.19616-22.81847,23.64823-22.81847h28.17585c15.89175,0,23.18825,4.8027,23.18825,22.81847v20.13526C1172.32272,393.31969,1167.05553,399.23175,1149.13447,399.23175Zm-24.478-12.74858h20.32016c9.7948,0,12.01351-2.124,12.01351-10.80946V358.58692c0-9.33032-3.13866-11.45433-12.28409-11.45433h-19.77c-9.6054,0-12.28409,2.39909-12.28409,11.54452v17.0913C1112.652,384.17426,1115.33067,386.48317,1124.65648,386.48317Z" transform="translate(-325 -324.97703)"/><path class="cls-5" d="M331.83652,461.37825,351.6967,445.951h25.40246v64.10817H361.76659V459.71421h-4.71251l-17.089,13.39345Z" transform="translate(-325 -324.97703)"/><path class="cls-5" d="M488.68417,510.05915H460.50832c-17.18149,0-23.64823-6.372-23.64823-21.894V468.02987c0-17.55127,6.1894-22.81846,23.64823-22.81846h28.17585c15.88724,0,23.186,4.8027,23.186,22.81846v20.13527C511.87016,504.14709,506.60523,510.05915,488.68417,510.05915Zm-24.48025-12.74858h20.32242c9.79254,0,12.009-2.124,12.009-10.80946V469.41432c0-9.33032-3.14092-11.45433-12.28634-11.45433H464.48126c-9.60766,0-12.28635,2.39909-12.28635,11.54452v17.0913C452.19491,495.00166,454.8736,497.31057,464.20392,497.31057Z" transform="translate(-325 -324.97703)"/><path class="cls-5" d="M600.45407,510.05915H572.27822c-17.18149,0-23.64823-6.372-23.64823-21.894V468.02987c0-17.55127,6.1894-22.81846,23.64823-22.81846h28.17585c15.88724,0,23.186,4.8027,23.186,22.81846v20.13527C623.64006,504.14709,618.37513,510.05915,600.45407,510.05915Zm-24.48025-12.74858h20.32242c9.79254,0,12.009-2.124,12.009-10.80946V469.41432c0-9.33032-3.14092-11.45433-12.28634-11.45433H576.25116c-9.60766,0-12.28635,2.39909-12.28635,11.54452v17.0913C563.96481,495.00166,566.6435,497.31057,575.97382,497.31057Z" transform="translate(-325 -324.97703)"/><path class="cls-5" d="M662.06167,461.37825,681.92185,445.951h25.40246v64.10817H691.99174V459.71421h-4.71251l-17.089,13.39345Z" transform="translate(-325 -324.97703)"/><path class="cls-5" d="M818.90706,510.05915H790.73122c-17.1815,0-23.64823-6.372-23.64823-21.894V468.02987c0-17.55127,6.19165-22.81846,23.64823-22.81846h28.17584c15.89176,0,23.18825,4.8027,23.18825,22.81846v20.13527C842.09531,504.14709,836.82813,510.05915,818.90706,510.05915Zm-24.478-12.74858h20.32016c9.79481,0,12.01352-2.124,12.01352-10.80946V469.41432c0-9.33032-3.14318-11.45433-12.2886-11.45433H794.70866c-9.60991,0-12.2886,2.39909-12.2886,11.54452v17.0913C782.42006,495.00166,785.09875,497.31057,794.42907,497.31057Z" transform="translate(-325 -324.97703)"/><path class="cls-5" d="M880.51692,461.37825,900.37711,445.951h25.407v64.10817H910.4515V459.71421h-4.717l-17.08679,13.39345Z" transform="translate(-325 -324.97703)"/><path class="cls-5" d="M1037.36908,510.05915h-28.17585c-17.18149,0-23.64823-6.372-23.64823-21.894V468.02987c0-17.55127,6.18714-22.81846,23.64823-22.81846h28.17585c15.88273,0,23.18374,4.8027,23.18374,22.81846v20.13527C1060.55282,504.14709,1055.29014,510.05915,1037.36908,510.05915Zm-24.4825-12.74858h20.32467c9.79029,0,12.00449-2.124,12.00449-10.80946V469.41432c0-9.33032-3.13866-11.45433-12.28409-11.45433h-19.77c-9.6054,0-12.28409,2.39909-12.28409,11.54452v17.0913C1000.87757,495.00166,1003.55626,497.31057,1012.88658,497.31057Z" transform="translate(-325 -324.97703)"/><path class="cls-5" d="M1149.13447,510.05915h-28.17585c-17.18149,0-23.64823-6.372-23.64823-21.894V468.02987c0-17.55127,6.19616-22.81846,23.64823-22.81846h28.17585c15.89175,0,23.18825,4.8027,23.18825,22.81846v20.13527C1172.32272,504.14709,1167.05553,510.05915,1149.13447,510.05915Zm-24.478-12.74858h20.32016c9.7948,0,12.01351-2.124,12.01351-10.80946V469.41432c0-9.33032-3.13866-11.45433-12.28409-11.45433h-19.77c-9.6054,0-12.28409,2.39909-12.28409,11.54452v17.0913C1112.652,495.00166,1115.33067,497.31057,1124.65648,497.31057Z" transform="translate(-325 -324.97703)"/><path class="cls-5" d="M331.83652,572.20564l19.86018-15.42726h25.40246v64.10816H361.76659V570.54161h-4.71251l-17.089,13.39345Z" transform="translate(-325 -324.97703)"/><path class="cls-5" d="M438.52413,572.20564l19.86018-15.42726h25.40245v64.10816H468.4542V570.54161h-4.71251l-17.089,13.39345Z" transform="translate(-325 -324.97703)"/><path class="cls-5" d="M595.374,620.88654H567.19818c-17.18149,0-23.64823-6.372-23.64823-21.894V578.85727c0-17.55128,6.1894-22.81846,23.64823-22.81846H595.374c15.88724,0,23.186,4.8027,23.186,22.81846v20.13527C618.56,614.97449,613.29509,620.88654,595.374,620.88654ZM570.89378,608.138H591.2162c9.79254,0,12.009-2.124,12.009-10.80946v-17.0868c0-9.33031-3.14092-11.45433-12.28634-11.45433H571.17112c-9.60766,0-12.28635,2.3991-12.28635,11.54452v17.09131C558.88477,605.82906,561.56346,608.138,570.89378,608.138Z" transform="translate(-325 -324.97703)"/><path class="cls-5" d="M656.98163,572.20564l19.86018-15.42726h25.40246v64.10816H686.9117V570.54161h-4.71251l-17.089,13.39345Z" transform="translate(-325 -324.97703)"/><path class="cls-5" d="M813.82928,620.88654H785.65343c-17.18149,0-23.64823-6.372-23.64823-21.894V578.85727c0-17.55128,6.18714-22.81846,23.64823-22.81846h28.17585c15.88724,0,23.18825,4.8027,23.18825,22.81846v20.13527C837.01753,614.97449,831.75034,620.88654,813.82928,620.88654Zm-24.478-12.74857h20.32016c9.7948,0,12.009-2.124,12.009-10.80946v-17.0868c0-9.33031-3.14317-11.45433-12.2886-11.45433H789.62637c-9.60991,0-12.2886,2.3991-12.2886,11.54452v17.09131C777.33777,605.82906,780.01646,608.138,789.35129,608.138Z" transform="translate(-325 -324.97703)"/><path class="cls-5" d="M925.59918,620.88654H897.42333c-17.18149,0-23.64823-6.372-23.64823-21.894V578.85727c0-17.55128,6.19165-22.81846,23.64823-22.81846h28.17585c15.88724,0,23.18374,4.8027,23.18374,22.81846v20.13527C948.78292,614.97449,943.52024,620.88654,925.59918,620.88654ZM901.11668,608.138h20.32467c9.79029,0,12.009-2.124,12.009-10.80946v-17.0868c0-9.33031-3.13866-11.45433-12.28409-11.45433h-19.77c-9.6054,0-12.28409,2.3991-12.28409,11.54452v17.09131C889.11218,605.82906,891.79087,608.138,901.11668,608.138Z" transform="translate(-325 -324.97703)"/><path class="cls-5" d="M1037.36908,620.88654h-28.17585c-17.18149,0-23.64823-6.372-23.64823-21.894V578.85727c0-17.55128,6.18714-22.81846,23.64823-22.81846h28.17585c15.88273,0,23.18374,4.8027,23.18374,22.81846v20.13527C1060.55282,614.97449,1055.29014,620.88654,1037.36908,620.88654Zm-24.4825-12.74857h20.32467c9.79029,0,12.00449-2.124,12.00449-10.80946v-17.0868c0-9.33031-3.13866-11.45433-12.28409-11.45433h-19.77c-9.6054,0-12.28409,2.3991-12.28409,11.54452v17.09131C1000.87757,605.82906,1003.55626,608.138,1012.88658,608.138Z" transform="translate(-325 -324.97703)"/><path class="cls-5" d="M1149.13447,620.88654h-28.17585c-17.18149,0-23.64823-6.372-23.64823-21.894V578.85727c0-17.55128,6.19616-22.81846,23.64823-22.81846h28.17585c15.89175,0,23.18825,4.8027,23.18825,22.81846v20.13527C1172.32272,614.97449,1167.05553,620.88654,1149.13447,620.88654Zm-24.478-12.74857h20.32016c9.7948,0,12.01351-2.124,12.01351-10.80946v-17.0868c0-9.33031-3.13866-11.45433-12.28409-11.45433h-19.77c-9.6054,0-12.28409,2.3991-12.28409,11.54452v17.09131C1112.652,605.82906,1115.33067,608.138,1124.65648,608.138Z" transform="translate(-325 -324.97703)"/><path class="cls-5" d="M331.83652,683.033l19.86018-15.42726h25.40246v64.10816H361.76659V681.369h-4.71251l-17.089,13.39345Z" transform="translate(-325 -324.97703)"/><path class="cls-5" d="M490.86229,731.71394H462.68645c-17.1815,0-23.64823-6.372-23.64823-21.894V689.68467c0-17.55128,6.18939-22.81847,23.64823-22.81847h28.17584c15.88725,0,23.186,4.80271,23.186,22.81847v20.13527C514.04829,725.80188,508.78336,731.71394,490.86229,731.71394Zm-24.48024-12.74858h20.32241c9.79255,0,12.009-2.124,12.009-10.80946V691.06911c0-9.33032-3.14092-11.45433-12.28635-11.45433H466.65939c-9.60766,0-12.28635,2.3991-12.28635,11.54452v17.09131C454.373,716.65646,457.05173,718.96536,466.38205,718.96536Z" transform="translate(-325 -324.97703)"/><path class="cls-5" d="M554.64577,683.033,574.506,667.60578h25.40246v64.10816H584.57584V681.369h-4.71251l-17.08905,13.39345Z" transform="translate(-325 -324.97703)"/><path class="cls-5" d="M663.5115,683.033l19.86018-15.42726h25.40246v64.10816H693.44157V681.369h-4.71251L671.64,694.76246Z" transform="translate(-325 -324.97703)"/><path class="cls-5" d="M772.37723,683.033l19.86019-15.42726h25.40245v64.10816H802.3073V681.369h-4.71251l-17.0913,13.39345Z" transform="translate(-325 -324.97703)"/><path class="cls-5" d="M881.243,683.033l19.86019-15.42726H926.5056v64.10816H911.173V681.369h-4.71251l-17.0868,13.39345Z" transform="translate(-325 -324.97703)"/><path class="cls-5" d="M990.1087,683.033l19.86018-15.42726h25.39794v64.10816h-15.33256V681.369h-4.708L998.235,694.76246Z" transform="translate(-325 -324.97703)"/><path class="cls-5" d="M1149.13447,731.71394h-28.17585c-17.18149,0-23.64823-6.372-23.64823-21.894V689.68467c0-17.55128,6.18714-22.81847,23.64823-22.81847h28.17585c15.88273,0,23.17923,4.80271,23.17923,22.81847v20.13527C1172.3137,725.80188,1167.05553,731.71394,1149.13447,731.71394Zm-24.487-12.74858h20.32918c9.78578,0,12.00449-2.124,12.00449-10.80946V691.06911c0-9.33032-3.13866-11.45433-12.28409-11.45433h-19.77c-9.6054,0-12.28409,2.3991-12.28409,11.54452v17.09131C1112.643,716.65646,1115.32165,718.96536,1124.64746,718.96536Z" transform="translate(-325 -324.97703)"/><path class="cls-5" d="M331.83652,793.86044l19.86018-15.42727h25.40246v64.10817H361.76659V792.19641h-4.71251l-17.089,13.39344Z" transform="translate(-325 -324.97703)"/><path class="cls-5" d="M438.52413,793.86044l19.86018-15.42727h25.40245v64.10817H468.4542V792.19641h-4.71251l-17.089,13.39344Z" transform="translate(-325 -324.97703)"/><path class="cls-5" d="M595.374,842.54134H567.19818c-17.18149,0-23.64823-6.372-23.64823-21.894V800.51207c0-17.55128,6.1894-22.81847,23.64823-22.81847H595.374c15.88724,0,23.186,4.8027,23.186,22.81847v20.13527C618.56,836.62928,613.29509,842.54134,595.374,842.54134Zm-24.48025-12.74858H591.2162c9.79254,0,12.009-2.124,12.009-10.80946V801.89651c0-9.33032-3.14092-11.45433-12.28634-11.45433H571.17112c-9.60766,0-12.28635,2.3991-12.28635,11.54452V819.078C558.88477,827.48386,561.56346,829.79276,570.89378,829.79276Z" transform="translate(-325 -324.97703)"/><path class="cls-5" d="M656.98163,793.86044l19.86018-15.42727h25.40246v64.10817H686.9117V792.19641h-4.71251l-17.089,13.39344Z" transform="translate(-325 -324.97703)"/><path class="cls-5" d="M813.82928,842.54134H785.65343c-17.18149,0-23.64823-6.372-23.64823-21.894V800.51207c0-17.55128,6.18714-22.81847,23.64823-22.81847h28.17585c15.88724,0,23.18825,4.8027,23.18825,22.81847v20.13527C837.01753,836.62928,831.75034,842.54134,813.82928,842.54134Zm-24.478-12.74858h20.32016c9.7948,0,12.009-2.124,12.009-10.80946V801.89651c0-9.33032-3.14317-11.45433-12.2886-11.45433H789.62637c-9.60991,0-12.2886,2.3991-12.2886,11.54452V819.078C777.33777,827.48386,780.01646,829.79276,789.35129,829.79276Z" transform="translate(-325 -324.97703)"/><path class="cls-5" d="M925.59918,842.54134H897.42333c-17.18149,0-23.64823-6.372-23.64823-21.894V800.51207c0-17.55128,6.19165-22.81847,23.64823-22.81847h28.17585c15.88724,0,23.18374,4.8027,23.18374,22.81847v20.13527C948.78292,836.62928,943.52024,842.54134,925.59918,842.54134Zm-24.4825-12.74858h20.32467c9.79029,0,12.009-2.124,12.009-10.80946V801.89651c0-9.33032-3.13866-11.45433-12.28409-11.45433h-19.77c-9.6054,0-12.28409,2.3991-12.28409,11.54452V819.078C889.11218,827.48386,891.79087,829.79276,901.11668,829.79276Z" transform="translate(-325 -324.97703)"/><path class="cls-5" d="M1037.36908,842.54134h-28.17585c-17.18149,0-23.64823-6.372-23.64823-21.894V800.51207c0-17.55128,6.18714-22.81847,23.64823-22.81847h28.17585c15.88273,0,23.18374,4.8027,23.18374,22.81847v20.13527C1060.55282,836.62928,1055.29014,842.54134,1037.36908,842.54134Zm-24.4825-12.74858h20.32467c9.79029,0,12.00449-2.124,12.00449-10.80946V801.89651c0-9.33032-3.13866-11.45433-12.28409-11.45433h-19.77c-9.6054,0-12.28409,2.3991-12.28409,11.54452V819.078C1000.87757,827.48386,1003.55626,829.79276,1012.88658,829.79276Z" transform="translate(-325 -324.97703)"/><path class="cls-5" d="M1149.13447,842.54134h-28.17585c-17.18149,0-23.64823-6.372-23.64823-21.894V800.51207c0-17.55128,6.19616-22.81847,23.64823-22.81847h28.17585c15.89175,0,23.18825,4.8027,23.18825,22.81847v20.13527C1172.32272,836.62928,1167.05553,842.54134,1149.13447,842.54134Zm-24.478-12.74858h20.32016c9.7948,0,12.01351-2.124,12.01351-10.80946V801.89651c0-9.33032-3.13866-11.45433-12.28409-11.45433h-19.77c-9.6054,0-12.28409,2.3991-12.28409,11.54452V819.078C1112.652,827.48386,1115.33067,829.79276,1124.65648,829.79276Z" transform="translate(-325 -324.97703)"/><path class="cls-5" d="M331.83652,904.68558l19.86018-15.42726h25.40246v64.10816H361.76659V903.02155h-4.71251L339.965,916.415Z" transform="translate(-325 -324.97703)"/><path class="cls-5" d="M489.41021,953.36648H461.23436c-17.18149,0-23.64823-6.372-23.64823-21.894V911.33721c0-17.55128,6.1894-22.81846,23.64823-22.81846h28.17585c15.88724,0,23.186,4.8027,23.186,22.81846v20.13527C512.59621,947.45443,507.33127,953.36648,489.41021,953.36648ZM464.93,940.61791h20.32242c9.79255,0,12.009-2.124,12.009-10.80946v-17.0868c0-9.33031-3.14092-11.45433-12.28634-11.45433H465.2073c-9.60766,0-12.28634,2.3991-12.28634,11.54452v17.09131C452.921,938.309,455.59964,940.61791,464.93,940.61791Z" transform="translate(-325 -324.97703)"/><path class="cls-5" d="M551.74386,904.68558,571.604,889.25832h25.40245v64.10816H581.67393V903.02155h-4.71251l-17.089,13.39345Z" transform="translate(-325 -324.97703)"/><path class="cls-5" d="M659.1575,904.68558l19.86019-15.42726h25.40245v64.10816H689.08757V903.02155h-4.7125L667.286,916.415Z" transform="translate(-325 -324.97703)"/><path class="cls-5" d="M816.73345,953.36648H788.5576c-17.18149,0-23.64823-6.372-23.64823-21.894V911.33721c0-17.55128,6.18714-22.81846,23.64823-22.81846h28.17585c15.88724,0,23.18825,4.8027,23.18825,22.81846v20.13527C839.9217,947.45443,834.65451,953.36648,816.73345,953.36648Zm-24.478-12.74857h20.32016c9.79481,0,12.009-2.124,12.009-10.80946v-17.0868c0-9.33031-3.14317-11.45433-12.2886-11.45433H792.53054c-9.60991,0-12.2886,2.3991-12.2886,11.54452v17.09131C780.24194,938.309,782.92063,940.61791,792.25545,940.61791Z" transform="translate(-325 -324.97703)"/><path class="cls-5" d="M929.22939,953.36648H901.05354c-17.18149,0-23.64823-6.372-23.64823-21.894V911.33721c0-17.55128,6.18714-22.81846,23.64823-22.81846h28.17585c15.88273,0,23.18374,4.8027,23.18374,22.81846v20.13527C952.41313,947.45443,947.15045,953.36648,929.22939,953.36648Zm-24.4825-12.74857h20.32467c9.79029,0,12.00449-2.124,12.00449-10.80946v-17.0868c0-9.33031-3.13866-11.45433-12.28409-11.45433h-19.77c-9.6054,0-12.28409,2.3991-12.28409,11.54452v17.09131C892.73788,938.309,895.41657,940.61791,904.74689,940.61791Z" transform="translate(-325 -324.97703)"/><path class="cls-5" d="M1041.72082,953.36648H1013.545c-17.18149,0-23.64822-6.372-23.64822-21.894V911.33721c0-17.55128,6.19165-22.81846,23.64822-22.81846h28.17585c15.88724,0,23.18374,4.8027,23.18374,22.81846v20.13527C1064.90456,947.45443,1059.64188,953.36648,1041.72082,953.36648Zm-24.4825-12.74857H1037.563c9.79029,0,12.009-2.124,12.009-10.80946v-17.0868c0-9.33031-3.13867-11.45433-12.2841-11.45433h-19.77c-9.6054,0-12.28409,2.3991-12.28409,11.54452v17.09131C1005.23382,938.309,1007.91251,940.61791,1017.23832,940.61791Z" transform="translate(-325 -324.97703)"/><path class="cls-5" d="M1104.05672,904.68558l19.86019-15.42726h25.39794v64.10816h-15.33257V903.02155h-4.708L1112.183,916.415Z" transform="translate(-325 -324.97703)"/><path class="cls-5" d="M331.83652,1015.513l19.86018-15.42726h25.40246v64.10816H361.76659V1013.849h-4.71251l-17.089,13.39345Z" transform="translate(-325 -324.97703)"/><path class="cls-5" d="M439.25017,1015.513l19.86018-15.42726h25.40246v64.10816H469.18024V1013.849h-4.71251l-17.08905,13.39345Z" transform="translate(-325 -324.97703)"/><path class="cls-5" d="M596.82386,1064.19388H568.648c-17.18149,0-23.64823-6.372-23.64823-21.894v-20.13527c0-17.55128,6.1894-22.81847,23.64823-22.81847h28.17585c15.88724,0,23.186,4.80271,23.186,22.81847v20.13527C620.00985,1058.28182,614.74492,1064.19388,596.82386,1064.19388Zm-24.48025-12.74858H592.666c9.79255,0,12.009-2.124,12.009-10.80946v-17.08679c0-9.33032-3.14092-11.45433-12.28634-11.45433H572.621c-9.60766,0-12.28635,2.3991-12.28635,11.54452v17.09131C560.3346,1049.1364,563.01329,1051.4453,572.34361,1051.4453Z" transform="translate(-325 -324.97703)"/><path class="cls-5" d="M659.1575,1015.513l19.86019-15.42726h25.40245v64.10816H689.08757V1013.849h-4.7125L667.286,1027.2424Z" transform="translate(-325 -324.97703)"/><path class="cls-5" d="M816.73345,1064.19388H788.5576c-17.18149,0-23.64823-6.372-23.64823-21.894v-20.13527c0-17.55128,6.18714-22.81847,23.64823-22.81847h28.17585c15.88724,0,23.18825,4.80271,23.18825,22.81847v20.13527C839.9217,1058.28182,834.65451,1064.19388,816.73345,1064.19388Zm-24.478-12.74858h20.32016c9.79481,0,12.009-2.124,12.009-10.80946v-17.08679c0-9.33032-3.14317-11.45433-12.2886-11.45433H792.53054c-9.60991,0-12.2886,2.3991-12.2886,11.54452v17.09131C780.24194,1049.1364,782.92063,1051.4453,792.25545,1051.4453Z" transform="translate(-325 -324.97703)"/><path class="cls-5" d="M929.22939,1064.19388H901.05354c-17.18149,0-23.64823-6.372-23.64823-21.894v-20.13527c0-17.55128,6.18714-22.81847,23.64823-22.81847h28.17585c15.88273,0,23.18374,4.80271,23.18374,22.81847v20.13527C952.41313,1058.28182,947.15045,1064.19388,929.22939,1064.19388Zm-24.4825-12.74858h20.32467c9.79029,0,12.00449-2.124,12.00449-10.80946v-17.08679c0-9.33032-3.13866-11.45433-12.28409-11.45433h-19.77c-9.6054,0-12.28409,2.3991-12.28409,11.54452v17.09131C892.73788,1049.1364,895.41657,1051.4453,904.74689,1051.4453Z" transform="translate(-325 -324.97703)"/><path class="cls-5" d="M1041.72082,1064.19388H1013.545c-17.18149,0-23.64822-6.372-23.64822-21.894v-20.13527c0-17.55128,6.19165-22.81847,23.64822-22.81847h28.17585c15.88724,0,23.18374,4.80271,23.18374,22.81847v20.13527C1064.90456,1058.28182,1059.64188,1064.19388,1041.72082,1064.19388Zm-24.4825-12.74858H1037.563c9.79029,0,12.009-2.124,12.009-10.80946v-17.08679c0-9.33032-3.13867-11.45433-12.2841-11.45433h-19.77c-9.6054,0-12.28409,2.3991-12.28409,11.54452v17.09131C1005.23382,1049.1364,1007.91251,1051.4453,1017.23832,1051.4453Z" transform="translate(-325 -324.97703)"/><path class="cls-5" d="M1104.05672,1015.513l19.86019-15.42726h25.39794v64.10816h-15.33257V1013.849h-4.708l-17.0913,13.39345Z" transform="translate(-325 -324.97703)"/><path class="cls-5" d="M331.83652,1126.34038l19.86018-15.42727h25.40246v64.10817H361.76659v-50.34493h-4.71251l-17.089,13.39344Z" transform="translate(-325 -324.97703)"/><path class="cls-5" d="M487.96038,1175.02128H459.78453c-17.18149,0-23.64823-6.372-23.64823-21.894V1132.992c0-17.55128,6.1894-22.81847,23.64823-22.81847h28.17585c15.88724,0,23.186,4.8027,23.186,22.81847v20.13527C511.14638,1169.10922,505.88144,1175.02128,487.96038,1175.02128Zm-24.48025-12.74858h20.32242c9.79255,0,12.009-2.124,12.009-10.80946v-17.08679c0-9.33032-3.14092-11.45433-12.28634-11.45433H463.75747c-9.60765,0-12.28634,2.3991-12.28634,11.54452v17.0913C451.47113,1159.9638,454.14982,1162.2727,463.48013,1162.2727Z" transform="translate(-325 -324.97703)"/><path class="cls-5" d="M599.002,1175.02128H570.82614c-17.1815,0-23.64823-6.372-23.64823-21.894V1132.992c0-17.55128,6.18939-22.81847,23.64823-22.81847H599.002c15.88725,0,23.186,4.8027,23.186,22.81847v20.13527C622.188,1169.10922,616.92305,1175.02128,599.002,1175.02128Zm-24.48024-12.74858h20.32241c9.79255,0,12.009-2.124,12.009-10.80946v-17.08679c0-9.33032-3.14092-11.45433-12.28635-11.45433H574.79908c-9.60766,0-12.28635,2.3991-12.28635,11.54452v17.0913C562.51273,1159.9638,565.19142,1162.2727,574.52174,1162.2727Z" transform="translate(-325 -324.97703)"/><path class="cls-5" d="M659.8858,1126.34038l19.86018-15.42727h25.40246v64.10817H689.81587v-50.34493h-4.71251l-17.089,13.39344Z" transform="translate(-325 -324.97703)"/><path class="cls-5" d="M816.0074,1175.02128H787.83156c-17.1815,0-23.64823-6.372-23.64823-21.894V1132.992c0-17.55128,6.19165-22.81847,23.64823-22.81847H816.0074c15.88725,0,23.18375,4.8027,23.18375,22.81847v20.13527C839.19115,1169.10922,833.92847,1175.02128,816.0074,1175.02128Zm-24.4825-12.74858h20.32467c9.7903,0,12.009-2.124,12.009-10.80946v-17.08679c0-9.33032-3.13867-11.45433-12.28409-11.45433h-19.77c-9.60541,0-12.2841,2.3991-12.2841,11.54452v17.0913C779.5204,1159.9638,782.19909,1162.2727,791.5249,1162.2727Z" transform="translate(-325 -324.97703)"/><path class="cls-5" d="M927.05126,1175.02128H898.87542c-17.1815,0-23.64823-6.372-23.64823-21.894V1132.992c0-17.55128,6.19165-22.81847,23.64823-22.81847h28.17584c15.88725,0,23.18374,4.8027,23.18374,22.81847v20.13527C950.235,1169.10922,944.97233,1175.02128,927.05126,1175.02128Zm-24.4825-12.74858h20.32467c9.79029,0,12.009-2.124,12.009-10.80946v-17.08679c0-9.33032-3.13867-11.45433-12.28409-11.45433h-19.77c-9.6054,0-12.28409,2.3991-12.28409,11.54452v17.0913C890.56426,1159.9638,893.243,1162.2727,902.56876,1162.2727Z" transform="translate(-325 -324.97703)"/><path class="cls-5" d="M1038.09061,1175.02128h-28.17585c-17.18149,0-23.64823-6.372-23.64823-21.894V1132.992c0-17.55128,6.19166-22.81847,23.64823-22.81847h28.17585c15.89175,0,23.18825,4.8027,23.18825,22.81847v20.13527C1061.27886,1169.10922,1056.01167,1175.02128,1038.09061,1175.02128Zm-24.478-12.74858h20.32016c9.7948,0,12.01352-2.124,12.01352-10.80946v-17.08679c0-9.33032-3.14318-11.45433-12.28861-11.45433h-19.76548c-9.60991,0-12.2886,2.3991-12.2886,11.54452v17.0913C1001.60361,1159.9638,1004.2823,1162.2727,1013.61262,1162.2727Z" transform="translate(-325 -324.97703)"/><path class="cls-5" d="M1149.13447,1175.02128h-28.17585c-17.18149,0-23.64823-6.372-23.64823-21.894V1132.992c0-17.55128,6.19616-22.81847,23.64823-22.81847h28.17585c15.89175,0,23.18825,4.8027,23.18825,22.81847v20.13527C1172.32272,1169.10922,1167.05553,1175.02128,1149.13447,1175.02128Zm-24.478-12.74858h20.32016c9.7948,0,12.01351-2.124,12.01351-10.80946v-17.08679c0-9.33032-3.13866-11.45433-12.28409-11.45433h-19.77c-9.6054,0-12.28409,2.3991-12.28409,11.54452v17.0913C1112.652,1159.9638,1115.33067,1162.2727,1124.65648,1162.2727Z" transform="translate(-325 -324.97703)"/></g></g><path class="cls-6" d="M921.75382,827.18792c49.87967-14.46085,83.30773-27.38708,104.84311-37.11335a64.21228,64.21228,0,0,0,37.48693-53.89946c.25981-3.46484.62326-7.35771,1.1398-11.777,4.41657-37.78618,12.90642-53.14679,23.53239-90.50442,12.12739-42.63623,23.04479-81.01726,19.77-128.43561-1.47857-21.40979-4.01718-53.20908-23.19191-87.75513-28.31452-51.01291-73.70075-73.4165-88.45-79.94764-54.67525-24.21051-146.15839-6.54044-146.15839-6.54044s-74.27516,19.0583-118.15786,54.394c-88.34251,70.89751-103.90069,181.53379-76.692,283.19957,10.09159,40.594,30.59424,102.79951,75.6703,171.5035C731.54615,840.31192,843.67258,851.50183,921.75382,827.18792Z" transform="translate(-325 -324.97703)"/><path class="cls-7" d="M931.45955,823.935c-6.54289-14.00364-9.556-35.33262-10.93994-52.70423a55.43825,55.43825,0,0,1,19.38175-46.60921l0,0a55.53415,55.53415,0,0,0,18.31148-30.65967l18.73461-87.44641s17.06914-152.74773-66.7907-200.3164S698.10748,434.65,664.788,517.47275c-24.53352,60.98337-1.73527,153.68036,11.99385,198.32632a67.23475,67.23475,0,0,0,30.79625,38.53516l0,0a67.35731,67.35731,0,0,1,29.4241,34.55076s5.93085,52.37178,20.1165,53.14775C871.9333,848.31324,931.45955,823.935,931.45955,823.935Z" transform="translate(-325 -324.97703)"/><path class="cls-6" d="M858.45409,1035.06708c-.93348-.86556-1.8213-1.76917-2.72942-2.65586-13.30467,12.95263-43.45092,52.26432-43.45092,142.61175H920.45149s2.33343-75.16255-9.41064-116.474A104.541,104.541,0,0,1,858.45409,1035.06708Z" transform="translate(-325 -324.97703)"/><path class="cls-6" d="M1027.01114,871.56019s-28.52788-45.64989-59.14679-57.22654a1.708,1.708,0,0,1-.43714.73139c-30.2852,41.17076-99.34686,52.50333-143.3595,28.26829a2.7264,2.7264,0,0,1-.57863-.374c-3.7858,5.75028-28.644,45.85593-19.21053,94.29529,3.82525,19.64259,12.89063,37.20233,22.72631,51.47852a177.31026,177.31026,0,0,0,36.95233,38.81028c47.61579,33.372,106.59487,19.36413,146.23294-19.57326,15.0107-14.37231,26.42895-32.92218,30.8892-53.28912.01748-.0854.03354-.17052.05074-.25592.551-2.55214.95969-5.1398,1.28551-7.74408C1047.47251,905.78028,1027.01114,871.56019,1027.01114,871.56019Z" transform="translate(-325 -324.97703)"/><path class="cls-6" d="M1040.06552,977.69a104.82414,104.82414,0,0,1-19.57579,35.19219c-.595,29.15442.54847,95.14026,18.83622,162.125,0,0,70.19356.01578,135.67405.01578C1175,1175.023,1129.65055,1008.86756,1040.06552,977.69Z" transform="translate(-325 -324.97703)"/><path class="cls-8" d="M745.49761,679.39381,717.74482,687.752l-8.49689,2.586s-27.75308-52.874-25.3055-110.8274c2.49351-57.95344,42.57605-77.11746,43.40723-31.30888.13867,6.88049.64656,14.63866,1.43151,22.85821,1.6164,17.363,4.43319,36.85,7.29621,54.39792a.90183.90183,0,0,0,.04622.32328C739.44829,648.96233,743.92771,671.72809,745.49761,679.39381Z" transform="translate(-325 -324.97703)"/><path class="cls-9" d="M744.64117,675.139l-26.70081,8.0414c-4.26515-8.97448-18.171-41.09561-16.66038-75.88256,1.37725-32.56556,19.59249-47.80422,27.27839-36.38628,1.55513,16.70485,4.26515,35.4532,7.01965,52.33594a.86764.86764,0,0,0,.04447.311C738.82115,645.86106,743.13078,667.76387,744.64117,675.139Z" transform="translate(-325 -324.97703)"/><path class="cls-8" d="M910.07636,573.87673a524.85647,524.85647,0,0,1-7.94249,75.82461l-48.20993,6.511-11.12908,1.47773s-64.049-165.687,15.51577-180.27913C902.78015,469.23731,911.23081,524.00445,910.07636,573.87673Z" transform="translate(-325 -324.97703)"/><path class="cls-9" d="M907.84537,572.78028a538.35578,538.35578,0,0,1-7.47488,74.56345l-45.37159,6.40269c-5.17167-14.57672-45.58883-134.005,12.55956-145.13052C898.154,502.75811,906.84589,536.81562,907.84537,572.78028Z" transform="translate(-325 -324.97703)"/><path class="cls-8" d="M770.96651,711.41885s41.04417-5.60086,63.33416-23.29222c0,0-13.40256,40.52642-33.2376,56.85676C801.06307,744.98339,780.65391,728.57455,770.96651,711.41885Z" transform="translate(-325 -324.97703)"/><path class="cls-7" d="M1087.862,597.10444c-5.67981,24.70516-15.562,45.48529-26.22912,57.538-7.34244,8.40416-15.10032,12.5603-22.07326,10.94418-17.03944-3.9253-23.04281-40.95994-13.39147-82.7051,3.925-16.9935,9.83595-32.186,16.624-43.9154,9.83595-17.08567,21.51914-26.87568,31.63215-24.56678C1091.464,518.32464,1097.51332,555.35955,1087.862,597.10444Z" transform="translate(-325 -324.97703)"/><path class="cls-8" d="M1079.18048,609.29552c-4.10992,17.73222-10.39007,33.47911-17.54762,45.34691-7.34244,8.40416-15.10032,12.5603-22.07326,10.94418-17.03944-3.9253-23.04281-40.95994-13.39147-82.7051,3.925-16.9935,9.83595-32.186,16.624-43.9154,7.61949-9.14317,15.70066-13.761,22.99687-12.09864C1082.7825,530.79278,1088.73938,567.689,1079.18048,609.29552Z" transform="translate(-325 -324.97703)"/><path class="cls-6" d="M670.18821,1042.76521c2.45265-16.19277,2.54059-33.17781-.97153-49.19358-4.46476-19.15556-13.4935-37.06761-27.69135-50.51686a22.35451,22.35451,0,0,0-2.15755-1.83258c-.54566-.28664-1.09075-.57582-1.6677-.94786a11.82771,11.82771,0,0,1-1.46927-1.02959c-12.56256-9.17925-30.6237-35.24518-32.04563-50.07436-1.70913-17.8227-32.46981-4.62965-24.43515,19.18206,8.03438,23.81141,17.542,38.27448,17.542,38.27448s-32.15978,17.78465-78.12056-3.34216a11.86789,11.86789,0,0,0-11.52112.50281c-4.05017,2.70744-6.9425,8.32384.2049,19.91571,11.21053,18.18206,42.883,23.75731,59.00924,23.59919a7.28554,7.28554,0,0,1,.94419,14.52507c-10.3616,1.06623-31.42133.83455-62.17947-10.92445a10.10208,10.10208,0,0,0-10.94954,2.104c-2.83061,2.9921-4.37034,8.29142.79228,17.5214,9.62654,17.21081,62.66341,25.05775,83.92156,19.20827a5.12118,5.12118,0,0,1,2.92587,9.81171c-7.67868,2.4814-22.308,6.56426-34.7914,6.3182a14.0085,14.0085,0,0,0-10.88781,4.48985c-3.31595,3.79058-4.46646,9.77508,6.79622,17.65416,18.25082,12.768,90.943,1.38585,125.25692-17.72237C669.23218,1047.78155,669.75727,1045.27845,670.18821,1042.76521Z" transform="translate(-325 -324.97703)"/><path class="cls-6" d="M763.78564,897.03424c-8.59385-1.36161-17.3289,1.36725-24.23363,6.66234-13.14457,10.08-43.22431,31.0197-73.08,37.34917,15.62146,28.29676,18.04339,63.3965,8.96589,94.19917a137.45309,137.45309,0,0,1-4.58,13.7762c1.43658-.85682,2.82384-1.72237,4.09554-2.60625,3.42671-2.3819,68.85872-42.978,88.36547-74.01881C783.87863,939.67907,790.50856,901.26761,763.78564,897.03424Z" transform="translate(-325 -324.97703)"/><path class="cls-6" d="M1119.90958,701.55924c14.45376,10.6209,30.56987,50.24177,25.99828,60.67806a61.50275,61.50275,0,0,1-3.73083,6.92446,182.1236,182.1236,0,0,0,32.823,93.64V750c0-8.6815-.27706-17.27056-.78495-25.81339-.92362.60006-1.43151.87739-1.43151.87739s-7.527-15.56227-23.874-34.63356C1132.56233,671.31265,1105.502,690.98456,1119.90958,701.55924Z" transform="translate(-325 -324.97703)"/><path class="cls-6" d="M1143.53808,814.98923a199.88776,199.88776,0,0,1-11.4191-32.87652c-20.76294,22.13273-53.77728,37.0755-69.05461,43.15751-8.08116,3.23252-14.87315,9.32637-18.10173,17.40923-6.51126,16.301,8.45039,41.65272,64.9726,38.18936,17.74434-1.08737,43.11692-8.96025,64.87057-17.8864A180.94052,180.94052,0,0,1,1143.53808,814.98923Z" transform="translate(-325 -324.97703)"/><path class="cls-7" d="M933.1654,911.4849a36.56755,36.56755,0,0,1-36.573,36.573,38.24616,38.24616,0,0,1-8.03494-.87739,36.57841,36.57841,0,1,1,43.68429-43.77673A35.828,35.828,0,0,1,933.1654,911.4849Z" transform="translate(-325 -324.97703)"/><path class="cls-8" d="M933.1654,911.4849a36.56755,36.56755,0,0,1-36.573,36.573,38.24616,38.24616,0,0,1-8.03494-.87739,31.405,31.405,0,1,1,43.68429-43.77673A35.828,35.828,0,0,1,933.1654,911.4849Z" transform="translate(-325 -324.97703)"/></svg>