<?xml version="1.0" encoding="UTF-8"?> <svg xmlns="http://www.w3.org/2000/svg" width="620" height="460" fill="none" viewBox="0 0 620 460"> <path fill="#4D16AF" fill-opacity=".05" d="M436.126 447.863l42.029-79.562 2.329-4.424 2.222-4.202c6.212-10.516 8.561-22.822 6.643-34.81a51.839 51.839 0 00-17.156-30.907 34.262 34.262 0 00-1.84-1.524 52.136 52.136 0 00-5.367-3.74l-125.193-72.213a53.62 53.62 0 00-5.966-2.808c-11.725-4.612-24.758-4.89-36.733-.783-11.975 4.107-22.098 12.326-28.532 23.166l-2.591 3.96-29.842 45.351-22.43 34.111a22.458 22.458 0 00-3.352 8.393 22.164 22.164 0 004.041 17.156 22.316 22.316 0 006.739 5.99l.137.077a22.598 22.598 0 0010.119 2.92 22.835 22.835 0 0010.383-1.973l64.242-28.762a10.048 10.048 0 014.598-.862c1.577.079 3.11.53 4.472 1.316l67.542 38.995a9.759 9.759 0 013.362 3.201 9.692 9.692 0 011.493 4.385l6.194 69.423a22.13 22.13 0 003.397 9.971 22.265 22.265 0 007.635 7.289 22.565 22.565 0 008.59 2.844 22.821 22.821 0 0017.093-4.968 22.655 22.655 0 005.742-7.01z"></path> <path fill="#4D16AF" fill-opacity=".05" d="M460.844 314.577a10.367 10.367 0 00-1.553-4.855 10.405 10.405 0 00-3.685-3.536 10.57 10.57 0 00-4.944-1.379 10.688 10.688 0 00-5.031 1.105 10.47 10.47 0 00-4.437 4.112 10.48 10.48 0 00-1.438 4.646 10.364 10.364 0 003.724 8.658 10.515 10.515 0 004.363 2.159c1.607.37 3.282.36 4.89-.028a10.696 10.696 0 004.368-2.209 10.58 10.58 0 002.912-3.917c.65-1.511.934-3.15.831-4.785v.029zM440.738 348.583a10.375 10.375 0 00-1.557-4.851 10.425 10.425 0 00-3.685-3.534 10.584 10.584 0 00-4.941-1.38 10.694 10.694 0 00-5.03 1.1 10.427 10.427 0 00-4.437 4.122 10.433 10.433 0 00-1.122 7.951 10.392 10.392 0 004.87 6.37 10.614 10.614 0 008.009 1.058 10.654 10.654 0 006.456-4.875 10.294 10.294 0 001.437-5.961zM467.859 341.43a10.357 10.357 0 00-2.993-6.635 10.51 10.51 0 00-6.646-3.06 10.671 10.671 0 00-7.08 1.995 10.565 10.565 0 00-4.083 6.086 10.365 10.365 0 00.891 7.227 10.418 10.418 0 005.433 4.868 10.63 10.63 0 007.344.15 10.643 10.643 0 005.697-4.64 10.444 10.444 0 001.437-5.991zM433.713 321.721a10.352 10.352 0 00-2.993-6.635 10.505 10.505 0 00-6.646-3.061 10.668 10.668 0 00-7.079 1.996 10.56 10.56 0 00-4.084 6.085 10.368 10.368 0 00.891 7.228 10.42 10.42 0 005.433 4.867c2.345.921 4.951.974 7.345.15a10.636 10.636 0 005.696-4.64 10.438 10.438 0 001.437-5.99zM334.766 263.791l-7.493-4.313a1.778 1.778 0 01-.636-2.429l4.42-7.463a4.628 4.628 0 00.604-1.702 4.567 4.567 0 00-2.233-4.607l-6.022-3.476a4.678 4.678 0 00-3.527-.466 4.691 4.691 0 00-2.845 2.144l-4.41 7.463a1.809 1.809 0 01-2.454.638l-6.587-3.775-.975-.539a4.701 4.701 0 00-6.372 1.678l-3.546 6.007a4.581 4.581 0 001.648 6.31l7.494 4.313a1.758 1.758 0 01.626 2.429l-4.381 7.463a4.627 4.627 0 00-.599 1.706 4.565 4.565 0 002.257 4.603l6.012 3.476c1.063.623 2.334.8 3.534.493a4.706 4.706 0 002.868-2.132l4.4-7.454a1.785 1.785 0 011.093-.832 1.779 1.779 0 011.36.185l7.484 4.313c.527.307 1.11.506 1.717.588a4.699 4.699 0 004.665-2.266l3.546-5.997a4.584 4.584 0 00-.277-5.161 4.604 4.604 0 00-1.371-1.197zM381.168 311.197a2.772 2.772 0 00-.847-.762l-17.891-10.341a2.827 2.827 0 00-3.841.982l-3.889 6.541a2.755 2.755 0 00.963 3.793l17.921 10.351a2.836 2.836 0 003.85-.982l3.851-6.521a2.79 2.79 0 00.403-1.551 2.758 2.758 0 00-.52-1.51z"></path> <circle cx="160" cy="215" r="15" stroke="#4D16AF" stroke-opacity=".1" stroke-width="10"></circle> <rect width="30" height="30" x="425" y="40" stroke="#4D16AF" stroke-linejoin="round" stroke-opacity=".1" stroke-width="10" rx="5"></rect> <path fill="#4D16AF" fill-opacity=".1" fill-rule="evenodd" d="M1.464 296.464a5.001 5.001 0 017.072 0L20 307.929l11.465-11.465a5.001 5.001 0 017.07 7.072L27.072 315l11.464 11.464a5.001 5.001 0 01-7.07 7.072L20 322.071 8.536 333.536a5.001 5.001 0 01-7.072-7.072L12.93 315 1.464 303.536a5.001 5.001 0 010-7.072zM371.464 136.464a5.002 5.002 0 017.072 0L390 147.929l11.464-11.465a5.002 5.002 0 017.072 0 5.002 5.002 0 010 7.072L397.071 155l11.465 11.464a5.002 5.002 0 010 7.072 5.002 5.002 0 01-7.072 0L390 162.071l-11.464 11.465a5.002 5.002 0 01-7.072 0 5.002 5.002 0 010-7.072L382.929 155l-11.465-11.464a5.002 5.002 0 010-7.072z" clip-rule="evenodd"></path> <path stroke="#4D16AF" stroke-linejoin="round" stroke-opacity=".1" stroke-width="10" d="M256.857 35L270 8.711 283.143 35h-26.286zM586.857 250L600 223.711 613.143 250h-26.286z"></path> </svg> 