<?xml version="1.0" encoding="UTF-8"?> <svg xmlns="http://www.w3.org/2000/svg" width="620" height="460" fill="none" viewBox="0 0 620 460"> <path fill="#4D16AF" fill-opacity=".05" d="M193.522 139.775l48.321 75.646 2.691 4.2 2.551 3.996a52.455 52.455 0 0027.067 22.996 53.103 53.103 0 0035.663.592 35.367 35.367 0 002.26-.826 52.88 52.88 0 005.976-2.759l126.264-71.806a54.218 54.218 0 005.464-3.736c9.946-7.794 16.764-18.863 19.217-31.2a52.164 52.164 0 00-5.849-36.038l-2.153-4.195-24.574-48.179-18.491-36.224a22.355 22.355 0 00-5.644-7.05 22.526 22.526 0 00-7.988-4.26 22.69 22.69 0 00-9.042-.782 22.748 22.748 0 00-8.634 2.821l-.136.08a22.636 22.636 0 00-7.657 7.252 22.423 22.423 0 00-3.514 9.908l-7.279 69.525a9.87 9.87 0 01-1.565 4.382 9.961 9.961 0 01-3.407 3.192l-68.151 38.722a9.968 9.968 0 01-4.494 1.302 9.922 9.922 0 01-4.585-.893l-63.789-29.142a22.642 22.642 0 00-10.427-2.028 22.716 22.716 0 00-10.222 2.946 22.64 22.64 0 00-6.819 5.975 22.46 22.46 0 00-3.911 8.153 22.303 22.303 0 002.857 17.43z"></path> <path fill="#4D16AF" fill-opacity=".05" d="M297.523 227.207a10.593 10.593 0 005.025 1.076 10.641 10.641 0 004.95-1.413 10.592 10.592 0 003.699-3.567 10.485 10.485 0 001.572-4.875 10.25 10.25 0 00-1.354-5.858 10.467 10.467 0 00-3.334-3.543 10.57 10.57 0 00-4.587-1.665 10.637 10.637 0 00-8.945 3.249 10.538 10.538 0 00-2.443 4.219 10.433 10.433 0 001.68 9.302 10.503 10.503 0 003.762 3.09l-.025-.015zM277.951 193.034a10.61 10.61 0 005.024 1.07 10.644 10.644 0 008.646-4.979 10.494 10.494 0 001.576-4.871 10.228 10.228 0 00-1.362-5.863 10.505 10.505 0 00-6.383-4.912 10.63 10.63 0 00-8.023 1.026 10.56 10.56 0 00-4.965 6.361 10.437 10.437 0 001.002 7.972 10.322 10.322 0 004.485 4.196zM270.518 219.908a10.604 10.604 0 007.308.72 10.605 10.605 0 006.028-4.195 10.47 10.47 0 001.827-7.079 10.426 10.426 0 00-3.257-6.534 10.554 10.554 0 00-6.765-2.822 10.632 10.632 0 00-6.995 2.256 10.526 10.526 0 00-3.836 6.241 10.412 10.412 0 001.181 7.203 10.462 10.462 0 004.509 4.21zM304.969 200.33a10.601 10.601 0 007.307.72 10.605 10.605 0 006.028-4.195 10.432 10.432 0 00-1.43-13.613 10.552 10.552 0 00-6.765-2.822 10.632 10.632 0 00-6.995 2.256 10.526 10.526 0 00-3.836 6.241 10.423 10.423 0 001.181 7.203 10.46 10.46 0 004.51 4.21zM405.51 144.002l7.55-4.303a1.82 1.82 0 011.359-.168c.457.123.846.42 1.084.827l4.292 7.507a4.6 4.6 0 001.182 1.364 4.64 4.64 0 003.429.937 4.683 4.683 0 001.724-.569l6.075-3.453a4.657 4.657 0 002.187-2.802 4.6 4.6 0 00-.438-3.511l-4.297-7.498a1.768 1.768 0 01.15-1.973 1.78 1.78 0 01.531-.453l6.621-3.791.963-.571a4.659 4.659 0 002.187-2.801 4.602 4.602 0 00-.438-3.512l-3.461-6.032a4.627 4.627 0 00-2.81-2.163 4.684 4.684 0 00-3.534.448l-7.551 4.303a1.79 1.79 0 01-.663.219 1.781 1.781 0 01-1.775-.887l-4.311-7.472a4.614 4.614 0 00-2.814-2.165 4.67 4.67 0 00-3.536.458l-6.07 3.444a4.667 4.667 0 00-2.214 2.795 4.61 4.61 0 00.416 3.524l4.293 7.485a1.752 1.752 0 01-.139 1.976c-.145.185-.326.34-.532.455l-7.545 4.294a4.662 4.662 0 00-2.198 2.803 4.593 4.593 0 00.444 3.518l3.452 6.027a4.612 4.612 0 002.823 2.198 4.679 4.679 0 003.564-.458zM340.674 160.368c.384-.04.756-.159 1.093-.349l18.063-10.252a2.8 2.8 0 001.328-1.676 2.77 2.77 0 00-.248-2.114l-3.754-6.593a2.787 2.787 0 00-1.678-1.307 2.824 2.824 0 00-2.122.252l-18.086 10.272a2.813 2.813 0 00-1.331 1.68 2.773 2.773 0 00.246 2.119l3.756 6.549a2.796 2.796 0 002.733 1.419z"></path> <circle r="15" stroke="#4D16AF" stroke-opacity=".1" stroke-width="10" transform="matrix(1 0 0 -1 200 240)"></circle> <rect width="30" height="30" x="5" y="-5" stroke="#4D16AF" stroke-linejoin="round" stroke-opacity=".1" stroke-width="10" rx="5" transform="matrix(1 0 0 -1 290 450)"></rect> <path fill="#4D16AF" fill-opacity=".1" fill-rule="evenodd" d="M1.464 173.536a5.001 5.001 0 007.072 0L20 162.071l11.465 11.465a5.001 5.001 0 007.07-7.072L27.072 155l11.464-11.464a5.001 5.001 0 00-7.07-7.072L20 147.929 8.536 136.464a5.001 5.001 0 00-7.072 7.072L12.93 155 1.464 166.464a5.001 5.001 0 000 7.072zM411.464 318.536a5.002 5.002 0 007.072 0L430 307.071l11.464 11.465a5.002 5.002 0 007.072 0 5.002 5.002 0 000-7.072L437.071 300l11.465-11.464a5.002 5.002 0 000-7.072 5.002 5.002 0 00-7.072 0L430 292.929l-11.464-11.465a5.002 5.002 0 00-7.072 0 5.002 5.002 0 000 7.072L422.929 300l-11.465 11.464a5.002 5.002 0 000 7.072z" clip-rule="evenodd"></path> <path stroke="#4D16AF" stroke-linejoin="round" stroke-opacity=".1" stroke-width="10" d="M586.857 170L600 143.711 613.143 170h-26.286z"></path> </svg> 