<?xml version="1.0" encoding="UTF-8"?> <svg xmlns="http://www.w3.org/2000/svg" width="620" height="885" fill="none" viewBox="0 0 620 885"> <path fill="#4D16AF" fill-opacity=".05" d="M193.607 103.782a40.206 40.206 0 00-18.18-2.378c-5.396 5.114-15.499 6.515-22.889 7.036a110.125 110.125 0 00-26.356-19.087c-6.343-3.258-13.766-6.515-15.695-13.42-3.27-10.912-21.843-15.277-32.96-12.801-14.061-3.779-30.116 1.107-41.43 10.292-4.97 4.04.621 14.072 4.938 18.86 4.316 4.788 9.646 10.065 8.665 16.286a37.9 37.9 0 01-18.115 2.508 30.99 30.99 0 00-10.268.196c-3.27 1.042-6.147 4.56-4.872 7.752-2.256 3.909-4.97 5.961-2.354 9.772 2.19 2.866 5.46 5.244 5.46 8.762a7.768 7.768 0 01-1.584 3.815 7.814 7.814 0 01-3.32 2.471c-2.518 1.271-5.33 1.89-7.685 3.258-7.422 4.69-7.488 15.276-6.54 23.973 4.807 5.863 5.56 15.961 3.27 23.192a13.34 13.34 0 00-1.307 8.371c1.144 3.257 4.806 4.299 8.01 5.146 6.867 1.759 14.911 3.258 20.372-1.205 14.388-11.856 36.688-5.733 54.901-1.628 6.279 1.4 12.916 3.713 16.579 8.99 4.905 7.003 2.812 16.774-1.21 24.331-4.022 7.557-9.81 14.267-12.393 22.443a61.65 61.65 0 00-1.014 23.875c.85 9.772 1.864 20.228 7.587 28.273a54.149 54.149 0 019.319 31.433c-.393 8.306-3.27 16.286-2.551 24.723 1.374 15.016 14.388 26.286 27.663 33.484 14.289 7.64 25.177 20.346 30.508 35.602 2.42 7.557 3.27 15.537 5.265 23.192a65.808 65.808 0 0022.366 33.875c7.848 6.222 20.731 8.404 30.606 10.195 5.134.945 10.66 1.694 14.518 5.147 1.766 1.629 3.041 3.681 4.774 5.374 8.24 8.143 23.413 4.789 31.751 12.834a72.793 72.793 0 015.526 7.036 25.173 25.173 0 009.595 7.078 25.271 25.271 0 0011.79 1.879c-1.864 6.124 5.494 13.29 3.27 19.25-1.831 4.821-7.325 6.906-11.118 10.424-6.539 6.026-7.618 16.286-4.774 24.853 2.845 8.566 8.829 15.439 14.813 22.084 11.15 12.28 24.524 18.273 36.59 29.641 11.216 10.553 13.733 27.621 11.281 42.768-2.452 15.146-9.123 29.315-13.864 43.842-8.894 27.231-11.053 57.198-2.551 84.689 8.502 27.491 28.383 51.79 55.065 62.539a8.644 8.644 0 008.731-3.257 7.826 7.826 0 001.111-8.827c-4.806-8.795-13.373-16.286-19.619-24.234a12.777 12.777 0 01-3.793-8.436c.294-3.518 3.27-6.059 5.592-8.828a22.748 22.748 0 005.101-14.918c0-5.049-3.074-10-2.911-15.048a12.797 12.797 0 012.037-7.158 12.872 12.872 0 015.68-4.829c2.191-.749 4.611-.684 6.736-1.596 6.932-3.062 5.821-13.615 10.856-19.283a26.566 26.566 0 018.927-5.472c13.439-6.515 24.491-19.185 25.701-33.973.981-11.824-3.27-26.059 5.69-33.974 8.305-7.1 21.058-2.377 31.881-4.136 4.382-.684 7.325-4.789 9.385-8.697a20.615 20.615 0 001.537-13.029c-.916-5.375-3.27-10.651-2.714-16.059.719-7.654 6.736-13.55 11.379-19.543a64.347 64.347 0 0011.444-24.495c2.355-10.097-4.152-22.019-13.243-27.067-9.09-5.049-20.011-5.18-30.409-5.473-10.399-.293-21.418-1.075-29.92-7.068-7.782-5.472-12.164-14.43-18.344-21.693-10.365-12.248-25.472-19.316-40.089-26.058-5.493-2.541-11.673-5.114-17.461-3.258a55.18 55.18 0 01-6.54 2.606c-6.539 1.205-11.673-4.853-17.428-7.947-12.001-6.515-29.233 2.866-30.279 16.286-6.213 2.117-17.69.293-21.222-5.212-2.518-3.974-3.564-9.544-7.913-11.335-2.322-.977-5.232-.619-7.128-2.28-3.27-2.736-.687-7.72 0-11.857.883-6.514-4.055-12.833-10.072-15.7a48.478 48.478 0 00-19.619-3.257 47.244 47.244 0 01-19.619-3.485c-11.608-5.798-16.35-21.531-11.281-33.42a33.363 33.363 0 0112.878-14.122 33.554 33.554 0 0118.545-4.77c12.72.359 26.159 9.772 26.159 22.313 0 3.257 5.2 3.583 8.012 1.987a11.852 11.852 0 003.362-3.498 11.781 11.781 0 001.673-4.548c.687-3.257.752-6.514 1.733-9.479a17.948 17.948 0 016.501-8.824 18.064 18.064 0 0110.437-3.423c7.783 0 13.276-7.654 18.802-13.029a22.296 22.296 0 006.103-9.735 22.232 22.232 0 00.437-11.47c-1.177-4.006-3.891-8.078-2.551-12.019a11.9 11.9 0 013.01-3.861 11.954 11.954 0 014.315-2.328 63.045 63.045 0 0126.715-4.788c7.946.326 12.033-4.625 16.088-11.433 2.91-4.918 4.218-11.14 8.894-14.495 6.965-4.983 16.611-.586 25.211-1.172a22.037 22.037 0 008.687-2.973 21.948 21.948 0 006.708-6.251 21.848 21.848 0 003.557-8.436c.576-3.03.502-6.147-.216-9.147a61.616 61.616 0 00-8.959-15.342 65.512 65.512 0 01-9.287-22.605c-1.504-7.394-1.929-15.505-6.801-21.27-7.619.358-16.873 0-23.674 3.648-1.341-7.753-2.812-15.831-7.619-22.052s-14.028-9.772-20.797-5.863c-6.768 3.909-8.076 13.029-6.866 20.553 1.21 7.525 4.381 14.919 4.185 22.573-.196 7.655-5.559 16.286-13.243 15.961a15.818 15.818 0 01-10.431-5.407c-4.054-4.039-7.259-9.251-12.458-11.694a58.665 58.665 0 00-12.851-2.801 27.82 27.82 0 01-10.192-4.584 27.701 27.701 0 01-7.55-8.218 27.561 27.561 0 01-2.899-21.631 27.627 27.627 0 015.121-9.903 27.749 27.749 0 018.628-7.086 27.842 27.842 0 0121.836-1.769c17.232-6.287 24.23-27.947 17.363-44.885-6.867-16.938-25.375-27.589-43.686-28.371a79.715 79.715 0 01-16.055-1.075c-14.715-3.713-22.431-19.836-35.217-27.947-8.567-5.342-27.924-.228-37.244-3.746zM425.606 51.375c-5.69 8.632.654 20.358 8.894 26.547 8.24 6.188 18.573 9.934 25.08 17.915 10.496 12.833 7.52 31.79 1.765 47.328-5.755 15.537-13.831 31.204-11.837 47.653a53.55 53.55 0 008.208 21.694c4.022 6.514 9.482 12.605 16.84 14.364 9.384 2.248 18.867-3.257 25.995-9.772 7.129-6.514 13.276-14.332 21.909-18.566 12.49-6.091 28.513-3.811 39.238-12.443 13.439-10.651 11.445-31.009 15.14-47.719 6.212-28.077 30.606-48.859 40.121-75.959A46.157 46.157 0 00620 45.903c-.294-18.11-15.663-33.224-32.862-39.315-21.222-7.492-42.672-2.802-64.45-3.779-11.869-.553-24.949-5.537-36.426-.749-17.69 7.394-12.491 24.788-24.066 35.08-10.039 8.99-28.547 2.02-36.59 14.235z"></path> <path fill="#4D16AF" fill-opacity=".05" d="M568.892 101.535a18.833 18.833 0 01-3.18 10.504 18.946 18.946 0 01-8.505 6.973 19.026 19.026 0 01-20.679-4.074 18.832 18.832 0 01-4.126-20.593 18.91 18.91 0 016.985-8.484 19.02 19.02 0 0123.939 2.336 18.851 18.851 0 015.566 13.338zM163.851 148.732c0 3.738-1.113 7.392-3.198 10.5a18.958 18.958 0 01-8.517 6.957 19.029 19.029 0 01-10.962 1.07 18.986 18.986 0 01-9.71-5.18 18.866 18.866 0 01-5.183-9.681 18.82 18.82 0 011.093-10.918 18.903 18.903 0 016.999-8.472 19.021 19.021 0 0110.546-3.168 18.989 18.989 0 0113.399 5.536 18.86 18.86 0 014.102 6.129 18.793 18.793 0 011.431 7.227zM433.911 641.914c0 3.736-1.113 7.389-3.197 10.496a18.957 18.957 0 01-8.511 6.958 19.033 19.033 0 01-10.958 1.075 18.987 18.987 0 01-9.71-5.171 18.866 18.866 0 01-5.191-9.673 18.826 18.826 0 011.08-10.915 18.906 18.906 0 016.985-8.479 19.015 19.015 0 0110.536-3.184c5.03 0 9.854 1.991 13.411 5.534a18.854 18.854 0 015.555 13.359zM284.674 346.936a18.845 18.845 0 01-3.181 10.505 18.95 18.95 0 01-8.504 6.973 19.034 19.034 0 01-10.96 1.088 18.983 18.983 0 01-9.719-5.163 18.866 18.866 0 01-5.2-9.672 18.824 18.824 0 011.074-10.92 18.901 18.901 0 016.985-8.484 19.017 19.017 0 0110.539-3.186 19 19 0 0113.399 5.522 18.856 18.856 0 015.567 13.337z"></path> </svg> 