<?xml version="1.0" encoding="UTF-8"?> <svg xmlns="http://www.w3.org/2000/svg" width="800" height="775" fill="none" viewBox="0 0 800 775"> <path fill="#4D16AF" fill-opacity=".05" d="M328.654 115.579c-10.188-10.2-26.817-.34-37.399 9.485l-31.516 29.443c-7.888 7.343-16.432 14.993-26.85 16.795-10.418 1.802-23.005-5.066-23.498-16.013 7.164-7.004 21.427 3.4 27.967-4.216 5.784-6.8-2.793-16.387-10.319-20.909-13.836-8.261-28.099-16.659-43.874-18.903-15.774-2.244-33.718 3.4-41.934 17.407-7.033 12.104-5.718 27.913-12.686 40.05-4.338 7.582-11.535 13.021-16.432 20.399-4.896 7.378-7.065 18.121-1.018 24.343 4.896 5.032 13.145 5.032 18.042 10.199 3.714 3.91 4.995 10.472 9.859 12.614 5.587 2.481 11.897-3.094 13.146-9.214 1.249-6.12-.559-12.443-1.512-18.631-2.925-18.529 6.08-41.308 24.024-43.96 4.108 0 5.455 6.222 3.615 9.996-1.841 3.774-5.39 6.391-7.329 10.199a14.273 14.273 0 00-1.257 5.694 14.278 14.278 0 001.12 5.724 13.871 13.871 0 003.297 4.74 13.311 13.311 0 004.892 2.915c7.788 2.108 20.77.408 19.718 8.67-1.052 8.261-16.761 3.026-21.822 10.199-2.99 4.182-.361 10.03-.427 15.232 0 10.199-11.009 16.999-20.836 17.543-9.826.544-19.718-2.278-29.577-1.36-9.86.918-20.507 8.125-20.047 18.291a250.893 250.893 0 01-42.198 15.979c.625 11.015 20.737 12.035 20.639 23.085 0 6.799-7.953 10.199-14.362 9.587-6.408-.612-12.85-3.094-19.028-1.428-10.714 2.924-14.46 18.495-8.512 28.185 5.949 9.689 18.108 13.599 29.118 12.613 2.223.018 4.426-.43 6.477-1.318a16.427 16.427 0 005.452-3.85c2.662-3.399 2.86-8.125 3.977-12.375 1.306-4.732 3.8-9.021 7.229-12.431 3.429-3.41 7.67-5.819 12.292-6.982 5.226-1.224 11.601-1.326 14.427-6.052 5.949 3.423 11.02 8.266 14.793 14.127a45.16 45.16 0 016.898 19.566c3.812 5.099 12.389-1.496 11.535-7.922-.854-6.426-6.31-10.879-10.681-15.537-4.371-4.658-7.986-11.9-4.568-17.339 10.194 3.244 19.383 9.206 26.645 17.286 7.263 8.08 12.343 17.994 14.731 28.747a11.48 11.48 0 004.619-2.599 12.006 12.006 0 003.036-4.441 12.377 12.377 0 00-.721-10.571c2.202-5.133 10.287-2.21 12.62 2.856 2.333 5.066 2.136 11.322 5.455 15.775 9.63 12.818 35.395-2.822 43.282 11.22 5.521 9.859-6.934 21.317-17.943 20.977-11.01-.34-21.033-6.8-31.977-7.99-12.094-1.258-23.827 4.148-35.92 5.576-12.094 1.428-26.916-3.4-29.578-15.707a30.42 30.42 0 00-2.103-9.826c-2.399-4.148-7.822-5.1-12.423-4.556-20.08 2.38-40.456 23.799-57.02 11.866-10.614 21.351-36.544 29.374-50.971 48.141-15.742 20.399-14.427 51.95.854 72.722 15.282 20.773 42.263 30.599 67.306 27.199 5.751-.748 11.765-2.074 17.122.204 5.357 2.278 8.676 7.548 13.146 11.321 4.469 3.774 11.732 5.644 15.413 1.088a38.129 38.129 0 00-2.335 17.016 37.826 37.826 0 005.358 16.269c6.573 10.539 18.7 18.869 18.437 31.346 0 6.494-3.747 12.273-5.455 18.495-7.789 28.525 24.812 51.813 29.939 80.984 1.413 7.853 1.38 17.305 7.821 21.759a19.822 19.822 0 0010.188 2.686c18.174 1.224 41.047-4.352 44.827-22.779.63-5.289.784-10.627.46-15.945.329-7.992 2.686-15.752 6.834-22.502 4.148-6.75 9.94-12.251 16.795-15.95a39.665 39.665 0 0010.812-6.426c6.573-6.8 5.127-17.985 1.742-26.859-3.385-8.873-8.249-17.815-7.099-27.198 1.907-15.163 17.648-23.153 29.578-32.197 8.975-6.876 16.545-15.524 22.27-25.444 5.725-9.921 9.494-20.917 11.087-32.353-16.432 5.372-36.808 9.962-49.296-2.345a51.254 51.254 0 01-9.629-15.64 25305.37 25305.37 0 01-23.399-50.521 9.514 9.514 0 01-1.294-3.41 9.641 9.641 0 01.078-3.662c2.267-6.255 11.338-1.02 14.854 4.59a547.357 547.357 0 0133.554 62.523c20.242-3.802 39.362-12.389 55.869-25.091 5.226-4.046 10.418-8.873 12.193-15.367 1.774-6.494-1.479-14.857-7.92-16.013a26.711 26.711 0 00-7.526.476c-15.184 1.666-28.362-10.2-38.287-22.303 6.803-7.888 19.16-3.4 28.427 1.088a206.14 206.14 0 0052.287 16.795 43.568 43.568 0 0113.146 3.672 35.058 35.058 0 017.624 5.949c20.877 19.909 36.104 45.336 44.038 73.539 7.92 1.836 13.507-8.296 14.131-16.659.625-8.364-.328-18.087 5.522-23.799 4.601-4.624 12.126-5.236 16.169-10.404 5.061-6.459 2.432-17.373 8.347-23.016 7.428-7.038 19.456 1.597 23.399 11.185 3.944 9.587 5.423 21.419 13.77 27.199l13.507-2.006c.148 23.775 7.915 46.829 22.085 65.548 7.69-4.182 4.207-16.319-.591-23.799-4.799-7.479-9.564-18.699-2.695-24.24 9.465 0 13.901 13.599 23.005 15.945 9.103 2.346 17.352-8.976 15.709-18.597-1.644-9.622-9.662-16.693-17.911-21.419-7.395-8.398 3.286-21.759 14.098-23.799 10.813-2.04 22.644 1.292 32.47-3.808 11.732-6.119 15.676-22.132 12.981-35.46-2.695-13.327-10.286-24.886-16.432-36.854-5.324-10.199-7.953-26.179 2.399-30.598a24.213 24.213 0 018.874-1.258c39.141-1.734 71.545-44.606 63.69-84.35-1.192-7.593-4.465-14.673-9.432-20.399-9.333-9.859-25.108-12.137-32.075-23.799-8.512-14.347 2.005-33.386 15.643-42.599 13.639-9.214 30.268-13.192 42.986-23.799 3.287 0 5.193-3.4 5.817-6.97a34.043 34.043 0 00-.164-6.595 14.367 14.367 0 012.674-8.478c1.758-2.45 4.24-4.241 7.07-5.102a13.146 13.146 0 018.615.332c2.76 1.076 5.106 3.053 6.683 5.632 3.845 6.29 2.301 14.585-.493 21.487-2.793 6.902-6.77 13.599-7.493 20.841-.723 7.241 3.287 16.149 10.484 16.999 8.775 1.02 14.427-9.724 14.986-18.801.559-9.078-1.118-19.039 3.582-26.723 7.197-11.695 27.047-14.449 27.54-28.286.427-11.22-13.146-17.781-15.643-28.695a44.343 44.343 0 01.394-13.599 52.59 52.59 0 00-3.659-24.809c-3.198-7.825-8.236-14.7-14.655-20-6.419-5.299-14.016-8.856-22.101-10.346a47.726 47.726 0 00-24.195 1.812c-5.061 1.7-9.86 4.25-14.987 5.643a70.123 70.123 0 01-23.399.986l-41.868-2.957c-12.522-.884-25.799-1.632-36.939 4.42-16.235 8.839-25.47 30.836-43.677 33.148-12.85 1.597-24.319-7.582-36.347-12.512a58.526 58.526 0 00-30.789-3.387c-10.373 1.657-20.15 6.082-28.367 12.839-6.112-3.23-4.239-12.648-6.375-19.345-1.402-3.416-3.712-6.35-6.661-8.463a18.544 18.544 0 00-10.001-3.47 51.633 51.633 0 00-21.033 3.91c-14.658 4.929-31.681 13.395-33.029 29.272-.394 4.453.592 9.213-1.248 13.293-2.564 5.78-9.597 7.718-13.935 12.24-5.225 5.371-6.047 13.599-6.244 21.316-.197 7.718-.296 15.809-4.535 21.997-4.24 6.188-26.752 9.35-32.043 4.046zM602.675 554.02c3.767 4.833 8.781 8.464 14.46 10.472 6.573 2.923 14.69 5.167 20.671 1.02 4.075-2.856 17.681-22.337 18.634-26.587 1.841-8.126-.789-7.65-8.643-9.316-12.751-2.651-59.681 2.482-45.122 24.411z"></path> <path fill="#4D16AF" fill-opacity=".05" d="M556.402 551.266c9.351 17.088 22.917 31.303 39.315 41.195 16.397 9.891 35.038 15.104 54.019 15.106 2.629-2.754-1.249-7.003-4.7-8.499-9.563-4.182-19.718-6.29-29.577-9.826-9.86-3.536-19.489-8.907-25.306-17.815a118.102 118.102 0 01-6.047-11.899c-5.751-11.458-28.23-40.322-42.296-33.386 3.747 7.955 10.122 16.727 14.592 25.124zM655.388 631.264c-4.863 5.61-9.399 12.477-16.432 14.245-4.206 1.02-8.676 0-12.882 1.054-12.357 2.958-15.216 20.127-12.39 32.945 2.826 12.817 8.577 26.212 3.977 38.418a20.588 20.588 0 00-2.235 7.513 10.716 10.716 0 001.431 4.458 10.324 10.324 0 003.17 3.362c11.272 8.737 27.277 2.482 39.667-4.488 12.389-6.97 27.441-14.449 39.798-7.446 13.146 7.48 14.493 26.417 22.676 39.54 7.164 11.56 23.005 18.461 34.179 11.084a39.133 39.133 0 009.366-9.962l16.826-22.744c7.395-10.2 15.085-20.739 16.432-33.251 2.761-24.24-18.009-43.687-36.709-58.511a60.523 60.523 0 00-5.882-22.405c-7.625-13.599-23.203-14.891-18.963 4.182-12.225.442-22.085-18.325-35.69-20.127-16.498-2.176-35.822 9.928-46.339 22.133zM435.298 316.542a20.203 20.203 0 01-3.199 10.968c-2.092 3.248-5.068 5.781-8.553 7.278a18.466 18.466 0 01-11.02 1.13c-3.7-.76-7.1-2.638-9.767-5.398-2.668-2.76-4.484-6.277-5.219-10.105a20.352 20.352 0 011.093-11.4c1.447-3.605 3.895-6.684 7.035-8.848a18.608 18.608 0 0110.602-3.31c5.046 0 9.886 2.074 13.455 5.766 3.568 3.692 5.573 8.699 5.573 13.919z"></path> <path fill="#4D16AF" fill-opacity=".05" d="M723.384 671.28a20.207 20.207 0 01-3.196 10.964c-2.091 3.248-5.065 5.78-8.548 7.278a18.47 18.47 0 01-11.016 1.136c-3.699-.757-7.099-2.632-9.768-5.389-2.669-2.756-4.487-6.27-5.226-10.096a20.349 20.349 0 011.08-11.397c1.441-3.605 3.884-6.687 7.02-8.855a18.606 18.606 0 0110.593-3.326c5.05 0 9.893 2.073 13.467 5.763 3.573 3.691 5.585 8.698 5.594 13.922zM623.444 240.217a20.21 20.21 0 01-3.214 10.958c-2.096 3.244-5.075 5.771-8.56 7.263a18.473 18.473 0 01-11.018 1.116c-3.698-.763-7.094-2.645-9.759-5.406-2.664-2.761-4.477-6.278-5.209-10.105a20.364 20.364 0 011.098-11.396c1.448-3.603 3.896-6.68 7.035-8.843a18.614 18.614 0 0110.599-3.306c2.502 0 4.979.51 7.289 1.501a19.025 19.025 0 016.178 4.276 19.753 19.753 0 014.122 6.398 20.251 20.251 0 011.439 7.544zM140.08 459.403a20.203 20.203 0 01-3.198 10.968c-2.092 3.248-5.069 5.781-8.553 7.277a18.476 18.476 0 01-11.02 1.131c-3.701-.76-7.1-2.639-9.768-5.399-2.668-2.759-4.484-6.276-5.218-10.104a20.355 20.355 0 011.092-11.401c1.447-3.604 3.895-6.684 7.035-8.848a18.61 18.61 0 0110.602-3.309c5.044.009 9.879 2.086 13.445 5.776 3.567 3.689 5.575 8.691 5.583 13.909z"></path> </svg> 